<?xml version="1.0" encoding="utf-8"?>
<!-- Generator: Adobe Illustrator 19.0.0, SVG Export Plug-In . SVG Version: 6.00 Build 0)  -->
<svg version="1.1" id="Warstwa_1" xmlns="http://www.w3.org/2000/svg" xmlns:xlink="http://www.w3.org/1999/xlink" x="0px" y="0px"
	 viewBox="-1221 789 226 228" style="enable-background:new -1221 789 226 228;" xml:space="preserve">
<style type="text/css">
	.st0{fill:#ED9842;}
	.st1{fill:#FFFFFF;}
</style>
<g>
	<rect id="XMLID_2225_" x="-1206.3" y="796.4" class="st0" width="206.2" height="208.2"/>
	<path id="XMLID_3111_" class="st1" d="M-1055,845.6h-93.5c-8.4,0-15.1,6.3-15.1,14.2v71.1c0,7.8,6.7,14.2,15.1,14.2h9.9v21
		c0,1.2,0.8,2.5,2.1,3c0.6,0.3,1,0.3,1.5,0.3c0.8,0,1.7-0.3,2.3-0.7l31.2-23.7h46.5c8.4,0,15.1-6.3,15.1-14.2v-71.1
		C-1039.9,851.9-1046.6,845.6-1055,845.6z M-1126.8,905.5c1.8,2.2,4.1,3.3,6.9,3.3c2.9,0,5.1-1,6.6-2.9c0.8-1.1,1.5-2.6,2.1-4.7h8.4
		c-0.7,4.4-2.6,8-5.5,10.7c-2.9,2.8-6.7,4.1-11.4,4.1c-5.8,0-10.2-1.8-13.5-5.5c-3.3-3.7-5-8.8-5-15.3c0-7,1.9-12.4,5.6-16.2
		c3.3-3.3,7.3-5,12.4-5c6.7,0,11.6,2.2,14.7,6.6c1.7,2.5,2.6,5,2.8,7.4h-8.4c-0.6-1.9-1.2-3.4-2.1-4.4c-1.5-1.7-3.7-2.5-6.7-2.5
		s-5.4,1.2-7,3.7c-1.8,2.5-2.6,5.9-2.6,10.5C-1129.5,899.9-1128.6,903.3-1126.8,905.5z M-1077.6,915h-8l-13.5-40.2h8.9l8.7,30.5
		l8.8-30.5h8.7L-1077.6,915z"/>
</g>
</svg>
