<?xml version="1.0" encoding="utf-8"?>
<!-- Generator: Adobe Illustrator 19.0.0, SVG Export Plug-In . SVG Version: 6.00 Build 0)  -->
<svg version="1.1"
	 id="Warstwa_1" xmlns:dc="http://purl.org/dc/elements/1.1/" xmlns:cc="http://creativecommons.org/ns#" xmlns:rdf="http://www.w3.org/1999/02/22-rdf-syntax-ns#" xmlns:svg="http://www.w3.org/2000/svg" xmlns:sodipodi="http://sodipodi.sourceforge.net/DTD/sodipodi-0.dtd" xmlns:inkscape="http://www.inkscape.org/namespaces/inkscape"
	 xmlns="http://www.w3.org/2000/svg" xmlns:xlink="http://www.w3.org/1999/xlink" x="0px" y="0px" viewBox="-1140 796 140 142"
	 style="enable-background:new -1140 796 140 142;" xml:space="preserve">
<style type="text/css">
	.st0{fill:#ED9842;}
	.st1{fill:#FFFFFF;}
</style>
<g>
	<rect id="XMLID_676_" x="-1131.3" y="805" class="st0" width="126.3" height="127.5"/>
	<g id="XMLID_2222_" transform="translate(0,-952.36218)">
		<path id="XMLID_2223_" class="st1" d="M-1061,1783.1c-3.9,0-7.3,2.2-9.1,5.4c-1.7-2.3-4.5-3.8-7.6-3.8c-5.2,0-9.5,4.3-9.5,9.5
			c0,5.2,4.3,9.5,9.5,9.5h16.6c5.7,0,10.3-4.6,10.3-10.3S-1055.4,1783.1-1061,1783.1z M-1061,1786.3c4,0,7.1,3.2,7.1,7.1
			s-3.2,7.1-7.1,7.1h-7.1v-7.1C-1068.2,1789.4-1065,1786.3-1061,1786.3z M-1077.7,1787.8c3.5,0,6.3,2.8,6.3,6.3v6.3h-6.3
			c-3.5,0-6.3-2.8-6.3-6.3C-1084,1790.7-1081.2,1787.8-1077.7,1787.8z M-1103,1805.3v12.7h31.7v-12.7H-1103z M-1068.2,1805.3v12.7
			h31.7v-12.7H-1068.2z M-1098.3,1821.1v33.3h26.9v-33.3H-1098.3z M-1068.2,1821.1v33.3h26.9v-33.3H-1068.2z"/>
	</g>
</g>
</svg>
