<?xml version="1.0" encoding="utf-8"?>
<!-- Generator: Adobe Illustrator 19.0.0, SVG Export Plug-In . SVG Version: 6.00 Build 0)  -->
<svg version="1.1" id="Warstwa_1" xmlns="http://www.w3.org/2000/svg" xmlns:xlink="http://www.w3.org/1999/xlink" x="0px" y="0px"
	 viewBox="-1149 790 192 173" style="enable-background:new -1149 790 192 173;" xml:space="preserve">
<style type="text/css">
	.st0{fill:#ED9842;}
	.st1{fill:#FFFFFF;}
</style>
<g>
	<rect id="XMLID_827_" x="-1126.1" y="803.7" class="st0" width="146.3" height="147.7"/>
	<g id="XMLID_963_">
		<g id="XMLID_1404_">
			<g id="XMLID_1405_">
				<path id="XMLID_957_" class="st1" d="M-1059.1,901.2c0,19.4-28.5,20-30.4,1C-1091.4,882.3-1060.4,881.2-1059.1,901.2
					c0.2,2.5,4.1,2.5,3.9,0c-0.7-10.7-8.4-18.4-19.1-18.9c-10.8-0.6-19.4,9.7-19.1,19.9c0.6,24.3,38.2,23.3,38.2-1
					C-1055.2,898.6-1059.1,898.6-1059.1,901.2z"/>
			</g>
		</g>
		<g id="XMLID_1327_">
			<g id="XMLID_1402_">
				<path id="XMLID_956_" class="st1" d="M-1010.8,901.4c-0.5,19.6-29.4,19.5-30.4,0c-0.4-7.4,5.5-13.1,12.1-14.9
					C-1019.5,883.9-1011.3,892.4-1010.8,901.4c0.1,2.5,4.1,2.5,3.9,0c-0.6-10.8-8.3-18.6-19.1-19.1c-10.5-0.6-19,9.1-19.1,19.1
					c-0.1,10.8,8.8,18.6,19.1,19.1c10.6,0.6,18.9-9.2,19.1-19.1C-1006.8,898.8-1010.7,898.8-1010.8,901.4z"/>
			</g>
		</g>
		<g id="XMLID_1324_">
			<g id="XMLID_1325_">
				<path id="XMLID_955_" class="st1" d="M-1055.6,902.4c3.4-3.1,7.4-2.9,10.9,0.1c1.9,1.6,4.7-1.1,2.7-2.7
					c-5.2-4.3-11.3-4.7-16.4-0.1C-1060.2,901.4-1057.5,904.1-1055.6,902.4L-1055.6,902.4z"/>
			</g>
		</g>
		<g id="XMLID_1320_">
			<g id="XMLID_1321_">
				<path id="XMLID_954_" class="st1" d="M-1004.9,900.2c-1.3,0-2.6,0-3.9,0c-2.5,0-2.5,3.9,0,3.9c1.3,0,2.6,0,3.9,0
					C-1002.3,904.1-1002.3,900.2-1004.9,900.2L-1004.9,900.2z"/>
			</g>
		</g>
		<g id="XMLID_1241_">
			<g id="XMLID_1243_">
				<path id="XMLID_953_" class="st1" d="M-1091.5,900.2c-1.4,0-2.9,0-4.3,0c-2.5,0-2.5,3.9,0,3.9c1.4,0,2.9,0,4.3,0
					C-1088.9,904.1-1088.9,900.2-1091.5,900.2L-1091.5,900.2z"/>
			</g>
		</g>
		<g id="XMLID_966_">
			<polygon id="XMLID_948_" class="st1" points="-1064.8,858 -1059.4,859 -1053.9,870.6 -1057.9,871.9 -1053.9,881.5 -1064.8,869.1 
				-1060.3,867.2 			"/>
			<g id="XMLID_970_">
				<path id="XMLID_947_" class="st1" d="M-1064.9,858.5c1.7,0.3,3.5,0.7,5.2,1c0.3,0.1,1.7,3.6,2.1,4.3c1,2.1,2,4.2,3,6.4
					c0.4,0.9,0.7-0.1-0.2,0.2c-1.1,0.3-2.2,0.7-3.3,1c-0.3,0.1-0.4,0.4-0.3,0.7c1.4,3.2,2.7,6.4,4.1,9.6c0.3-0.2,0.5-0.4,0.8-0.6
					c-2.5-2.8-5-5.7-7.5-8.5c-1.1-1.2-2.1-2.4-3.2-3.6c0.2,0.2-0.2,0.6,1.1,0c1-0.4,2-0.9,3-1.3c0.3-0.1,0.3-0.5,0.2-0.7
					c-1.5-3.1-3-6.1-4.5-9.2c-0.3-0.6-1.1-0.1-0.8,0.5c1.2,2.4,2.4,4.8,3.5,7.3c0.3,0.5,0.5,1,0.8,1.6c0.2,0.4,0.5-0.4-0.3,0
					c-1.3,0.6-2.5,1.1-3.8,1.7c-0.3,0.1-0.3,0.6-0.1,0.8c3.6,4.1,7.2,8.2,10.9,12.3c0.4,0.5,1-0.1,0.8-0.6c-1-2.3-1.9-4.6-2.9-6.8
					c-0.3-0.6-0.6-1.3-0.8-1.9c-0.5-1.1,0-0.3-0.4-0.1c1.3-0.4,2.6-0.8,3.8-1.2c0.3-0.1,0.4-0.4,0.3-0.7c-1.6-3.3-3.1-6.6-4.7-9.9
					c-1.3-2.8-3.4-2.3-6.5-2.9C-1065.2,857.4-1065.5,858.4-1064.9,858.5z"/>
			</g>
		</g>
		<path id="XMLID_946_" class="st1" d="M-1004.9,883.5c0,0-28.5-28.6-61-32.8c0,0-12.3,21.1-23.9,29.5l1.1,5.5
			c-3.2,3-5.6,6.9-6.5,11.4l-2-13.5c0,0-6.9-19.6-1-30.8c0,0-3-2-4.9-0.7c1.7-1.6,5.8-4.9,8.9-2c-0.3-0.3-3.7-4.3,0-5.9
			c0,0,1.3,3.6,2.6,3c0,0,8.6-12.5,22.6-7C-1068.9,840.1-1000.9,811.9-1004.9,883.5z"/>
		<path id="XMLID_819_" class="st1" d="M-1100.3,855.4c-0.4,0.3-0.6,0.6-0.6,0.7C-1100.7,855.7-1100.5,855.5-1100.3,855.4z"/>
	</g>
</g>
</svg>
