<?xml version="1.0" encoding="utf-8"?>
<!-- Generator: Adobe Illustrator 19.0.0, SVG Export Plug-In . SVG Version: 6.00 Build 0)  -->
<svg version="1.1" id="Warstwa_1" xmlns="http://www.w3.org/2000/svg" xmlns:xlink="http://www.w3.org/1999/xlink" x="0px" y="0px"
	 viewBox="-1149 761 192 202" style="enable-background:new -1149 761 192 202;" xml:space="preserve">
<style type="text/css">
	.st0{fill:#ED9842;}
	.st1{fill:#FFFFFF;}
</style>
<g>
	<rect id="XMLID_2226_" x="-1131.3" y="773" class="st0" width="158.3" height="159.9"/>
	<g id="XMLID_2071_">
		<path id="XMLID_2144_" class="st1" d="M-1098.8,888.2c-1.1,3.1-0.5,5.7-0.6,9.2h0c0,0,0,0,0,0h54.5c-0.1-0.6-0.1-1.2-0.1-1.8
			c0-8.3,6.8-15.1,15.1-15.1c8.3,0,15.1,6.8,15.1,15.1c0,0.6,0,1.2-0.1,1.8h12.2c0,0,0,0,0,0l0,0c-0.1-3.5,0.5-6-0.6-9.2
			c-1.9-5.6-14.3-9.6-20-12.1c-2.8-1.2-5.9-2-7.6-3.2l-7.6-7.3c-0.1-0.5,0-1,0.2-1.4l6.6-2.4c6.3-2.3,8.6-9,5.3-15.1l-2.5-4.5
			c0.3-1.8,0.5-3.6,0.5-5.5c0-1.7-0.2-3.4-0.4-5.1l-7.2,3.1l-10.4,4.5c-1.3,0.6-3,0.9-4.7,0.9c-1.7,0-3.4-0.3-4.7-0.9l-10.4-4.5
			l-7.2-3.1c-0.3,1.6-0.4,3.4-0.4,5.1c0,1.9,0.2,3.7,0.5,5.5l-2.5,4.5c-3.4,6-1,12.8,5.3,15.1l6.7,2.4c0.1,0.4,0.2,0.9,0.1,1.4
			l-7.6,7.3c-1.7,1.3-4.8,2-7.6,3.2C-1084.4,878.6-1096.9,882.6-1098.8,888.2z"/>
		<path id="XMLID_2143_" class="st1" d="M-1064.8,831.7l10.4,4.5c0.9,0.4,2.2,0.6,3.4,0.6s2.5-0.2,3.4-0.6l10.4-4.5l7.9-3.4v-9.2
			l2.4-1l7.2-3.1c1.9-0.8,1.9-2.2,0-3l-27.9-12.1c-0.9-0.4-2.2-0.6-3.4-0.6s-2.5,0.2-3.4,0.6l-27.9,12.1c-1.9,0.8-1.9,2.2,0,3
			l2.1,0.9l-0.2,1.4c-0.8,0.1-1.4,0.8-1.4,1.7c0,0.8,0.5,1.4,1.2,1.6l-1.3,18c-0.1,0.8,0.1,1.9,0.3,2.7l1,3.1
			c0.1,0.4,0.3,0.5,0.4,0.5c0.2,0,0.3-0.2,0.4-0.5l1-3.1c0.2-0.7,0.4-1.9,0.3-2.7l-1.3-18c0.7-0.2,1.2-0.9,1.2-1.6
			c0-0.8-0.6-1.6-1.4-1.7l-0.2-1.3l4.9,2.1l2.4,1v9.2L-1064.8,831.7z"/>
		<path id="XMLID_2078_" class="st1" d="M-1026.1,910.3c-0.6,0.2-1.2,0.3-1.8,0.4c-0.6,0.1-1.1,0.1-1.7,0.1c-0.1,0-0.2,0-0.3,0
			c-0.1,0-0.2,0-0.3,0c-0.6,0-1.2-0.1-1.7-0.1c-0.6-0.1-1.2-0.2-1.8-0.4c-2-0.5-3.9-1.5-5.5-2.7l-3.7,10.3c-0.2,0.4,0,0.7,0.3,0.7
			c0.1,0,0.2,0,0.3-0.1l4.2-1.5c0.1-0.1,0.3-0.1,0.4-0.1c0.5,0,0.9,0.2,1.2,0.7l2.2,3.9c0.1,0.3,0.3,0.4,0.5,0.4
			c0.2,0,0.3-0.2,0.5-0.5l1.9-5.1l0.8-2.3l0.8-2.3l0.8,2.3l0.8,2.3l1.9,5.1c0.1,0.3,0.3,0.5,0.5,0.5c0.2,0,0.3-0.1,0.5-0.4l2.2-3.9
			c0.2-0.4,0.7-0.7,1.2-0.7c0.1,0,0.3,0,0.4,0.1l4.2,1.5c0.1,0,0.2,0.1,0.3,0.1c0.3,0,0.5-0.3,0.3-0.7l-3.7-10.3
			C-1022.2,908.8-1024,909.7-1026.1,910.3z"/>
		<path id="XMLID_2074_" class="st1" d="M-1017.9,895.6c0-6.6-5.4-12-12-12c-6.6,0-12,5.4-12,12c0,2.1,0.6,4.1,1.5,5.8
			c0.3,0.6,0.7,1.1,1.1,1.6c0.4,0.5,0.8,0.9,1.2,1.3c0.9,0.8,1.9,1.5,2.9,2c0.6,0.3,1.3,0.5,1.9,0.7c0.6,0.2,1.2,0.3,1.8,0.4
			c0.5,0.1,1,0.1,1.5,0.1c0.5,0,1,0,1.5-0.1c0.6-0.1,1.2-0.2,1.8-0.4c0.7-0.2,1.3-0.4,1.9-0.7c1.1-0.5,2.1-1.2,3-2
			c0.4-0.4,0.8-0.8,1.2-1.3c0.4-0.5,0.8-1,1.1-1.6C-1018.5,899.7-1017.9,897.7-1017.9,895.6z M-1023.6,899.1
			c-0.2,0.3-0.3,0.6-0.5,0.8c-0.6,0.8-1.3,1.4-2.2,1.9c-1,0.6-2.2,0.9-3.5,0.9s-2.5-0.3-3.5-0.9c-0.9-0.5-1.6-1.1-2.2-1.9
			c-0.2-0.3-0.4-0.5-0.5-0.8c-0.2-0.4-0.4-0.8-0.5-1.2c-0.1-0.4-0.2-0.8-0.3-1.2c-0.1-0.4-0.1-0.8-0.1-1.2c0-0.6,0.1-1.2,0.2-1.8
			c0.8-3.1,3.6-5.4,7-5.4c3.4,0,6.2,2.3,7,5.4c0.1,0.6,0.2,1.2,0.2,1.8c0,0.4,0,0.8-0.1,1.2c-0.1,0.4-0.2,0.8-0.3,1.2
			C-1023.2,898.4-1023.4,898.8-1023.6,899.1z"/>
		<polygon id="XMLID_2072_" class="st1" points="-1027.4,896.9 -1027.4,896.9 -1027.1,896.6 -1026.1,895.7 -1025,894.6 
			-1024.9,894.5 -1028.4,894 -1028.5,893.8 -1029.9,890.9 -1031.3,893.8 -1031.4,894 -1034.8,894.5 -1034.7,894.6 -1033.6,895.7 
			-1032.7,896.6 -1032.4,896.9 -1032.4,896.9 -1032.7,898.7 -1032.9,900.3 -1029.9,898.7 -1026.8,900.3 -1027.1,898.7 		"/>
	</g>
</g>
</svg>
