<?xml version="1.0" encoding="utf-8"?>
<!-- Generator: Adobe Illustrator 19.0.0, SVG Export Plug-In . SVG Version: 6.00 Build 0)  -->
<svg version="1.1"
	 id="Warstwa_1" xmlns:dc="http://purl.org/dc/elements/1.1/" xmlns:cc="http://creativecommons.org/ns#" xmlns:rdf="http://www.w3.org/1999/02/22-rdf-syntax-ns#" xmlns:svg="http://www.w3.org/2000/svg" xmlns:sodipodi="http://sodipodi.sourceforge.net/DTD/sodipodi-0.dtd" xmlns:inkscape="http://www.inkscape.org/namespaces/inkscape"
	 xmlns="http://www.w3.org/2000/svg" xmlns:xlink="http://www.w3.org/1999/xlink" x="0px" y="0px" viewBox="-1199 692 307 310"
	 style="enable-background:new -1199 692 307 310;" xml:space="preserve">
<style type="text/css">
	.st0{fill:#333333;}
	.st1{fill:#FFFFFF;}
</style>
<rect id="XMLID_1134_" x="-1188.1" y="703" class="st0" width="286.5" height="286.5"/>
<g>
	<path class="st1" d="M-1092.7,895.7c-1.8,0-2.9,0.7-2.9,1.9c0,3.9,9.7,1.8,9.7,8.3c0,3.2-2.8,5.2-6.8,5.2c-2.8,0-5.5-1.2-7.4-2.9
		l1.3-2.6c1.9,1.7,4.2,2.6,6.1,2.6c2.1,0,3.4-0.8,3.4-2.2c0-4-9.7-1.8-9.7-8.2c0-3.1,2.7-5,6.6-5c2.3,0,4.6,0.7,6.3,1.9l-1.3,2.7
		C-1089.4,896.2-1091.4,895.7-1092.7,895.7z"/>
	<path class="st1" d="M-1075,905v6h-3v-5.9l-6.7-12.1h3.1l5.2,8.8l5-8.8h3.1L-1075,905z"/>
	<path class="st1" d="M-1060.3,895.7c-1.8,0-2.9,0.7-2.9,1.9c0,3.9,9.7,1.8,9.7,8.3c0,3.2-2.8,5.2-6.8,5.2c-2.8,0-5.5-1.2-7.4-2.9
		l1.3-2.6c1.9,1.7,4.2,2.6,6.1,2.6c2.1,0,3.4-0.8,3.4-2.2c0-4-9.7-1.8-9.7-8.2c0-3.1,2.7-5,6.6-5c2.3,0,4.6,0.7,6.3,1.9l-1.3,2.7
		C-1057,896.2-1058.9,895.7-1060.3,895.7z"/>
	<path class="st1" d="M-1037.7,893v2.7h-5.7V911h-3v-15.3h-5.7V893H-1037.7z"/>
	<path class="st1" d="M-1022.2,893v2.7h-9.8v4.9h8.8v2.7h-8.8v5h10.2v2.7h-13.2v-18H-1022.2z"/>
	<path class="st1" d="M-1014.6,893l6,12l5.9-12h3.6v18h-2.8l0-13.5l-5.7,11.6h-2l-5.7-11.6V911h-2.9v-18H-1014.6z"/>
	<path class="st1" d="M-1098.3,926.6c-1.8,0-2.9,0.7-2.9,1.9c0,3.9,9.7,1.8,9.7,8.3c0,3.2-2.8,5.2-6.8,5.2c-2.8,0-5.5-1.2-7.4-2.9
		l1.3-2.6c1.9,1.7,4.2,2.6,6.1,2.6c2.1,0,3.4-0.8,3.4-2.2c0-4-9.7-1.8-9.7-8.2c0-3.1,2.7-5,6.6-5c2.3,0,4.6,0.7,6.3,1.9l-1.3,2.7
		C-1095,927.1-1096.9,926.6-1098.3,926.6z"/>
	<path class="st1" d="M-1074.3,923.9v2.2l-11,13.1h11.1v2.7h-15.2v-2.2l11-13.1h-10.7v-2.7H-1074.3z"/>
	<path class="st1" d="M-1058.8,942l-5.9-8l-3.1,3.4v4.6h-3v-18h3v9.3l8.6-9.3h3.6l-7,7.7l7.4,10.3H-1058.8z"/>
	<path class="st1" d="M-1035.3,932.9c0,5.2-4.2,9.1-9.6,9.1c-5.4,0-9.6-4-9.6-9.1c0-5.2,4.2-9.1,9.6-9.1
		C-1039.5,923.8-1035.3,927.8-1035.3,932.9z M-1051.3,932.9c0,3.6,3,6.4,6.5,6.4c3.5,0,6.4-2.8,6.4-6.4c0-3.6-2.9-6.4-6.4-6.4
		C-1048.4,926.6-1051.3,929.4-1051.3,932.9z"/>
	<path class="st1" d="M-1029,923.9v15.3h7.8v2.8h-10.8v-18H-1029z"/>
	<path class="st1" d="M-1005.4,923.9v2.7h-9.8v4.9h8.8v2.7h-8.8v5h10.2v2.7h-13.2v-18H-1005.4z"/>
	<path class="st1" d="M-998.4,923.9l9.7,13v-13h3v18h-3l-9.6-12.9V942h-3v-18H-998.4z M-989.3,919.4l-3.1,2.5h-2.6l2.7-3.8
		L-989.3,919.4z"/>
</g>
<g id="XMLID_1057_" transform="translate(0,-952.36218)">
	<path id="XMLID_1068_" class="st1" d="M-1044.9,1730.2l-72.4,27.4l72.4,27.4l72.4-27.4L-1044.9,1730.2z M-1109.3,1764v13.6
		c1-0.4,2.1-0.7,3.2-0.7c1.2,0,2.2,0.3,3.2,0.7v-11.2L-1109.3,1764z M-1090,1771.3v23.3c0,6.7,20.1,16.1,45.1,16.1
		c25,0,45.1-9.4,45.1-16.1v-23.3l-43.9,16.6c-0.7,0.3-1.6,0.3-2.3,0L-1090,1771.3L-1090,1771.3z M-1106.1,1780.1
		c-2.7,0-4.8,2.2-4.8,4.8s2.2,4.8,4.8,4.8c2.7,0,4.8-2.2,4.8-4.8S-1103.4,1780.1-1106.1,1780.1z"/>
</g>
</svg>
