<?xml version="1.0" encoding="utf-8"?>
<!-- Generator: Adobe Illustrator 19.0.0, SVG Export Plug-In . SVG Version: 6.00 Build 0)  -->
<svg version="1.1"
	 id="Warstwa_1" xmlns:dc="http://purl.org/dc/elements/1.1/" xmlns:cc="http://creativecommons.org/ns#" xmlns:rdf="http://www.w3.org/1999/02/22-rdf-syntax-ns#" xmlns:svg="http://www.w3.org/2000/svg" xmlns:sodipodi="http://sodipodi.sourceforge.net/DTD/sodipodi-0.dtd" xmlns:inkscape="http://www.inkscape.org/namespaces/inkscape"
	 xmlns="http://www.w3.org/2000/svg" xmlns:xlink="http://www.w3.org/1999/xlink" x="0px" y="0px" viewBox="-1200 723 281 275"
	 style="enable-background:new -1200 723 281 275;" xml:space="preserve">
<style type="text/css">
	.st0{fill:#ED9842;}
	.st1{fill:#FFFFFF;}
</style>
<g>
	<rect id="XMLID_22_" x="-1188" y="730" class="st0" width="259" height="259"/>
	<g>
		<path class="st1" d="M-1101.7,904.4c-1.6,0-2.7,0.6-2.7,1.7c0,3.6,8.8,1.7,8.8,7.5c0,2.9-2.6,4.7-6.1,4.7c-2.6,0-5-1-6.7-2.6
			l1.2-2.4c1.7,1.5,3.8,2.4,5.5,2.4c1.9,0,3.1-0.7,3.1-2c0-3.6-8.8-1.6-8.8-7.4c0-2.8,2.4-4.5,5.9-4.5c2.1,0,4.2,0.7,5.7,1.7
			l-1.1,2.4C-1098.7,904.8-1100.5,904.4-1101.7,904.4z"/>
		<path class="st1" d="M-1085.7,912.8v5.4h-2.7v-5.3l-6.1-11h2.8l4.7,7.9l4.6-7.9h2.8L-1085.7,912.8z"/>
		<path class="st1" d="M-1072.4,904.4c-1.6,0-2.7,0.6-2.7,1.7c0,3.6,8.8,1.7,8.8,7.5c0,2.9-2.6,4.7-6.1,4.7c-2.6,0-5-1-6.7-2.6
			l1.2-2.4c1.7,1.5,3.8,2.4,5.5,2.4c1.9,0,3.1-0.7,3.1-2c0-3.6-8.8-1.6-8.8-7.4c0-2.8,2.4-4.5,5.9-4.5c2.1,0,4.2,0.7,5.7,1.7
			l-1.1,2.4C-1069.4,904.8-1071.2,904.4-1072.4,904.4z"/>
		<path class="st1" d="M-1052,901.9v2.5h-5.2v13.8h-2.7v-13.8h-5.1v-2.5H-1052z"/>
		<path class="st1" d="M-1038,901.9v2.5h-8.9v4.4h8v2.4h-8v4.5h9.2v2.5h-11.9v-16.3H-1038z"/>
		<path class="st1" d="M-1031.1,901.9l5.4,10.8l5.4-10.8h3.2v16.3h-2.5l0-12.2l-5.1,10.5h-1.8l-5.1-10.5v12.2h-2.6v-16.3H-1031.1z"
			/>
		<path class="st1" d="M-1081.9,938c0,4.7-3.8,8.3-8.6,8.3c-4.9,0-8.6-3.6-8.6-8.3c0-4.7,3.8-8.2,8.6-8.2
			C-1085.7,929.8-1081.9,933.3-1081.9,938z M-1096.4,938c0,3.2,2.7,5.8,5.9,5.8c3.2,0,5.8-2.6,5.8-5.8c0-3.2-2.6-5.8-5.8-5.8
			C-1093.7,932.3-1096.4,934.8-1096.4,938z"/>
		<path class="st1" d="M-1072.4,932.2c-3.3,0-5.8,2.5-5.8,5.7c0,3.2,2.6,5.8,5.8,5.8c1.6,0,3.3-0.7,4.5-1.9l1.6,1.8
			c-1.7,1.6-4,2.7-6.3,2.7c-4.8,0-8.5-3.6-8.5-8.3c0-4.6,3.7-8.2,8.6-8.2c2.3,0,4.6,1,6.2,2.5l-1.6,2
			C-1069,933-1070.7,932.2-1072.4,932.2z"/>
		<path class="st1" d="M-1051.8,929.9v2.5h-8.9v4.4h8v2.4h-8v4.5h9.2v2.5h-11.9v-16.3H-1051.8z"/>
		<path class="st1" d="M-1045.4,929.9l8.7,11.7v-11.7h2.7v16.3h-2.7l-8.7-11.7v11.7h-2.7v-16.3H-1045.4z"/>
		<path class="st1" d="M-1023,940.7v5.4h-2.7v-5.3l-6.1-11h2.8l4.7,7.9l4.6-7.9h2.8L-1023,940.7z"/>
	</g>
	<g id="XMLID_442_" transform="translate(0,-952.36218)">
		<path id="XMLID_443_" class="st1" d="M-1048.5,1746.2c-4.5,0-8.4,2.5-10.4,6.2c-2-2.7-5.2-4.4-8.7-4.4c-6,0-11,4.9-11,11
			s4.9,11,11,11h19.2c6.5,0,11.9-5.3,11.9-11.9C-1036.6,1751.5-1041.9,1746.2-1048.5,1746.2z M-1048.5,1749.8c4.6,0,8.2,3.7,8.2,8.2
			c0,4.6-3.7,8.2-8.2,8.2h-8.2v-8.2C-1056.7,1753.5-1053,1749.8-1048.5,1749.8z M-1067.6,1751.7c4.1,0,7.3,3.2,7.3,7.3v7.3h-7.3
			c-4.1,0-7.3-3.2-7.3-7.3S-1071.7,1751.7-1067.6,1751.7z M-1096.9,1771.8v14.6h36.5v-14.6H-1096.9z M-1056.7,1771.8v14.6h36.5
			v-14.6H-1056.7z M-1091.4,1790v38.4h31V1790H-1091.4z M-1056.7,1790v38.4h31V1790H-1056.7z"/>
	</g>
</g>
</svg>
