<?xml version="1.0" encoding="utf-8"?>
<!-- Generator: Adobe Illustrator 19.0.0, SVG Export Plug-In . SVG Version: 6.00 Build 0)  -->
<svg version="1.1" id="Warstwa_1" xmlns="http://www.w3.org/2000/svg" xmlns:xlink="http://www.w3.org/1999/xlink" x="0px" y="0px"
	 viewBox="-684 145 281 289" style="enable-background:new -684 145 281 289;" xml:space="preserve">
<style type="text/css">
	.st0{fill:#ED9842;}
	.st1{enable-background:new    ;}
	.st2{fill:#FFFFFF;}
	.st3{fill:#FFFFFF;stroke:#FFFFFF;stroke-width:2;stroke-miterlimit:10;}
</style>
<g>
	<rect id="XMLID_21_" x="-675.5" y="157.5" class="st0" width="264" height="264"/>
	<g class="st1">
		<path class="st2" d="M-587.6,334c-1.6,0-2.7,0.6-2.7,1.7c0,3.6,9,1.7,8.9,7.7c0,3-2.6,4.8-6.3,4.8c-2.6,0-5.1-1.1-6.8-2.6l1.2-2.4
			c1.7,1.6,3.8,2.4,5.6,2.4c1.9,0,3.1-0.7,3.1-2c0-3.7-9-1.6-9-7.5c0-2.8,2.4-4.6,6.1-4.6c2.2,0,4.3,0.7,5.8,1.7l-1.2,2.5
			C-584.5,334.5-586.3,334-587.6,334z"/>
		<path class="st2" d="M-571.3,342.6v5.5h-2.8v-5.4l-6.2-11.2h2.8l4.7,8.1l4.7-8.1h2.8L-571.3,342.6z"/>
		<path class="st2" d="M-557.7,334c-1.6,0-2.7,0.6-2.7,1.7c0,3.6,9,1.7,8.9,7.7c0,3-2.6,4.8-6.3,4.8c-2.6,0-5.1-1.1-6.8-2.6l1.2-2.4
			c1.7,1.6,3.8,2.4,5.6,2.4c1.9,0,3.1-0.7,3.1-2c0-3.7-9-1.6-9-7.5c0-2.8,2.4-4.6,6.1-4.6c2.2,0,4.3,0.7,5.8,1.7l-1.2,2.5
			C-554.6,334.5-556.4,334-557.7,334z"/>
		<path class="st2" d="M-536.8,331.5v2.5h-5.3v14.1h-2.8V334h-5.2v-2.5H-536.8z"/>
		<path class="st2" d="M-522.6,331.5v2.5h-9.1v4.5h8.1v2.5h-8.1v4.6h9.3v2.5h-12.1v-16.6H-522.6z"/>
		<path class="st2" d="M-515.6,331.5l5.5,11l5.5-11h3.3v16.6h-2.6v-12.4l-5.2,10.7h-1.8l-5.2-10.7v12.4h-2.6v-16.6H-515.6z"/>
	</g>
	<g class="st1">
		<path class="st2" d="M-606,360l4,13.5l4-13.5h2.8l4,13.5l4-13.5h2.9l-5.6,16.6h-2.9l-3.9-13l-4,13h-2.9l-5.5-16.6H-606z"/>
		<path class="st2" d="M-577.1,362.5c-1.6,0-2.7,0.6-2.7,1.7c0,3.6,9,1.7,8.9,7.7c0,3-2.6,4.8-6.3,4.8c-2.6,0-5.1-1.1-6.8-2.6
			l1.2-2.4c1.7,1.6,3.8,2.4,5.6,2.4c1.9,0,3.1-0.7,3.1-2c0-3.7-9-1.6-9-7.5c0-2.8,2.4-4.6,6.1-4.6c2.2,0,4.3,0.7,5.8,1.7l-1.2,2.5
			C-574,363-575.8,362.5-577.1,362.5z"/>
		<path class="st2" d="M-554.4,365.7c0,3.7-2.4,5.9-6.6,5.9h-3.8v5h-2.8V360h6.6C-556.8,360-554.4,362.1-554.4,365.7z M-557.1,365.8
			c0-2.2-1.4-3.2-4-3.2h-3.7v6.6h3.7C-558.5,369.1-557.1,368-557.1,365.8z"/>
		<path class="st2" d="M-541.9,372.9h-8.4l-1.6,3.7h-2.9l7.3-16.6h2.9l7.3,16.6h-3L-541.9,372.9z M-543,370.4l-3.1-7.4l-3.1,7.4
			H-543z"/>
		<path class="st2" d="M-524.6,376.6l-3-5c-0.2,0-0.5,0-0.8,0h-3.9v5h-2.8V360h6.7c4.2,0,6.7,2.1,6.7,5.7c0,2.7-1.2,4.5-3.4,5.4
			l3.7,5.6L-524.6,376.6L-524.6,376.6z M-528.4,369.1c2.6,0,4-1.1,4-3.3c0-2.2-1.5-3.2-4-3.2h-3.9v6.6L-528.4,369.1L-528.4,369.1z"
			/>
		<path class="st2" d="M-510.6,362.4c-3.3,0-5.9,2.6-5.9,5.8c0,3.3,2.6,5.9,5.9,5.9c1.7,0,3.4-0.8,4.6-2l1.7,1.9
			c-1.7,1.7-4.1,2.7-6.4,2.7c-4.9,0-8.6-3.7-8.6-8.4c0-4.7,3.8-8.4,8.7-8.4c2.3,0,4.7,1,6.3,2.6l-1.6,2
			C-507.2,363.2-508.9,362.4-510.6,362.4z"/>
		<path class="st2" d="M-498.6,360v16.6h-2.8V360H-498.6z"/>
		<path class="st2" d="M-483.6,372.9h-8.4l-1.6,3.7h-2.9l7.3-16.6h2.9l7.3,16.6h-3L-483.6,372.9z M-484.6,370.4l-3.1-7.4l-3.1,7.4
			H-484.6z"/>
	</g>
	<g id="XMLID_303_">
		<path id="XMLID_297_" class="st3" d="M-519.8,275.2l-12.5-4.7c-2-0.7-3.2-2.6-3.2-4.7v-2.4c2.7-2.4,5.7-6.2,7.4-10.5
			c1.9,0,3.6-1.3,4-3.1l1.1-4.2c0.2-0.8,0-1.6-0.5-2.3c-0.5-0.6-1.3-1-2.1-1c0.1-1.1,0.2-2.2,0.2-3.2c0-11.7-6.4-18.1-18.1-18.1
			s-18.1,6.4-18.1,18.1c0,1,0.1,2.1,0.2,3.2c-0.8,0-1.6,0.4-2.1,1s-0.7,1.5-0.5,2.3l1.1,4.2c0.5,1.9,2.1,3.1,4,3.1
			c1.7,4.3,4.8,8.1,7.4,10.5v2.4c0,2.1-1.3,4-3.2,4.7l-12.5,4.7c-5,1.9-8.3,6.6-8.3,12v8.4c0,2.9,2.4,5.3,5.3,5.3h53.3
			c2.9,0,5.3-2.4,5.3-5.3v-8.4C-511.5,281.8-514.8,277.1-519.8,275.2z"/>
		<path id="XMLID_249_" class="st3" d="M-560.3,261.6l-4.8-1.8v-4c-1.4-1.2-2.5-2.9-3-4.8l-1.1-4.2c-0.6-2.4-0.1-4.9,1.4-6.8
			c0.2-0.3,0.5-0.6,0.8-0.9V239c0-4.3,0.8-8,2.2-11.3c-1.9-1-4.1-1.5-6.9-1.5c-8,0-12.5,4.4-12.5,12.5c0,0.3,0,0.6,0,0.9
			c-1.2,0-2.1,0.9-2.1,2.1v2.2c0,2,1.6,3.7,3.7,3.7c1,2.7,2.4,5.2,4.3,7v5.1l-3.8,1.4c-2.5,0.9-4.2,3.4-4.2,6.1v12.3
			c0,2.9,2.4,5.3,5.3,5.3h0.2c0.8-6.6,5.2-12.3,11.5-14.7l12.1-4.6C-558.2,264.5-559.3,263.1-560.3,261.6z"/>
		<path id="XMLID_19_" class="st3" d="M-526.7,261.6l4.8-1.8v-4c1.4-1.2,2.5-2.9,3-4.8l1.1-4.2c0.6-2.4,0.1-4.9-1.4-6.8
			c-0.2-0.3-0.5-0.6-0.8-0.9V239c0-4.3-0.8-8-2.2-11.3c1.9-1,4.1-1.5,6.9-1.5c8,0,12.5,4.4,12.5,12.5c0,0.3,0,0.6,0,0.9
			c1.2,0,2.1,0.9,2.1,2.1v2.2c0,2-1.6,3.7-3.7,3.7c-1,2.7-2.4,5.2-4.3,7v5.1l3.8,1.4c2.5,0.9,4.2,3.4,4.2,6.1v12.3
			c0,2.9-2.4,5.3-5.3,5.3h-0.2c-0.8-6.6-5.2-12.3-11.5-14.7l-12.1-4.6C-528.8,264.5-527.7,263.1-526.7,261.6z"/>
	</g>
</g>
</svg>
