<?xml version="1.0" encoding="utf-8"?>
<!-- Generator: Adobe Illustrator 19.0.0, SVG Export Plug-In . SVG Version: 6.00 Build 0)  -->
<svg version="1.1" id="Warstwa_1" xmlns="http://www.w3.org/2000/svg" xmlns:xlink="http://www.w3.org/1999/xlink" x="0px" y="0px"
	 viewBox="-1266 803.5 281 289" style="enable-background:new -1266 803.5 281 289;" xml:space="preserve">
<style type="text/css">
	.st0{fill:#ED9842;}
	.st1{fill:#FFFFFF;}
	.st2{font-family:'Montserrat-Regular';}
	.st3{font-size:23.7303px;}
	.st4{fill:#FFFFFF;stroke:#FFFFFF;stroke-width:2;stroke-miterlimit:10;}
</style>
<rect id="XMLID_21_" x="-1256" y="812.5" class="st0" width="264" height="264"/>
<text id="XMLID_25_" transform="matrix(1 0 0 1 -1175.5057 1003.1309)"><tspan x="0" y="0" class="st1 st2 st3">SYSTEM </tspan><tspan x="-14.1" y="28.5" class="st1 st2 st3">WSPARCIA</tspan></text>
<g id="XMLID_303_">
	<path id="XMLID_297_" class="st4" d="M-1100.3,930.2l-12.5-4.7c-2-0.7-3.2-2.6-3.2-4.7v-2.4c2.7-2.4,5.7-6.2,7.4-10.5
		c1.9,0,3.6-1.3,4-3.1l1.1-4.2c0.2-0.8,0-1.6-0.5-2.3c-0.5-0.6-1.3-1-2.1-1c0.1-1.1,0.2-2.2,0.2-3.2c0-11.7-6.4-18.1-18.1-18.1
		s-18.1,6.4-18.1,18.1c0,1,0.1,2.1,0.2,3.2c-0.8,0-1.6,0.4-2.1,1c-0.5,0.6-0.7,1.5-0.5,2.3l1.1,4.2c0.5,1.9,2.1,3.1,4,3.1
		c1.7,4.3,4.8,8.1,7.4,10.5v2.4c0,2.1-1.3,4-3.2,4.7l-12.5,4.7c-5,1.9-8.3,6.6-8.3,12v8.4c0,2.9,2.4,5.3,5.3,5.3h53.3
		c2.9,0,5.3-2.4,5.3-5.3v-8.4C-1092,936.8-1095.3,932.1-1100.3,930.2z"/>
	<path id="XMLID_249_" class="st4" d="M-1140.8,916.6l-4.8-1.8v-4c-1.4-1.2-2.5-2.9-3-4.8l-1.1-4.2c-0.6-2.4-0.1-4.9,1.4-6.8
		c0.2-0.3,0.5-0.6,0.8-0.9c0,0,0-0.1,0-0.1c0-4.3,0.8-8,2.2-11.3c-1.9-1-4.1-1.5-6.9-1.5c-8,0-12.5,4.4-12.5,12.5c0,0.3,0,0.6,0,0.9
		c-1.2,0-2.1,0.9-2.1,2.1v2.2c0,2,1.6,3.7,3.7,3.7c1,2.7,2.4,5.2,4.3,7v5.1l-3.8,1.4c-2.5,0.9-4.2,3.4-4.2,6.1v12.3
		c0,2.9,2.4,5.3,5.3,5.3h0.2c0.8-6.6,5.2-12.3,11.5-14.7l12.1-4.6C-1138.7,919.5-1139.8,918.1-1140.8,916.6z"/>
	<path id="XMLID_19_" class="st4" d="M-1107.2,916.6l4.8-1.8v-4c1.4-1.2,2.5-2.9,3-4.8l1.1-4.2c0.6-2.4,0.1-4.9-1.4-6.8
		c-0.2-0.3-0.5-0.6-0.8-0.9c0,0,0-0.1,0-0.1c0-4.3-0.8-8-2.2-11.3c1.9-1,4.1-1.5,6.9-1.5c8,0,12.5,4.4,12.5,12.5c0,0.3,0,0.6,0,0.9
		c1.2,0,2.1,0.9,2.1,2.1v2.2c0,2-1.6,3.7-3.7,3.7c-1,2.7-2.4,5.2-4.3,7v5.1l3.8,1.4c2.5,0.9,4.2,3.4,4.2,6.1v12.3
		c0,2.9-2.4,5.3-5.3,5.3h-0.2c-0.8-6.6-5.2-12.3-11.5-14.7l-12.1-4.6C-1109.3,919.5-1108.2,918.1-1107.2,916.6z"/>
</g>
</svg>
