<?xml version="1.0" encoding="utf-8"?>
<!-- Generator: Adobe Illustrator 19.0.0, SVG Export Plug-In . SVG Version: 6.00 Build 0)  -->
<svg version="1.1" id="Warstwa_1" xmlns="http://www.w3.org/2000/svg" xmlns:xlink="http://www.w3.org/1999/xlink" x="0px" y="0px"
	 viewBox="-459 456 281 289" style="enable-background:new -459 456 281 289;" xml:space="preserve">
<style type="text/css">
	.st0{fill:#333333;}
	.st1{fill:#FFFFFF;}
	.st2{fill:#FFFFFF;stroke:#FFFFFF;stroke-width:2;stroke-miterlimit:10;}
</style>
<g>
	<rect id="XMLID_21_" x="-450.5" y="468.5" class="st0" width="264" height="264"/>
	<g>
		<path class="st1" d="M-362.6,645c-1.6,0-2.7,0.6-2.7,1.7c0,3.6,9,1.7,8.9,7.7c0,3-2.6,4.8-6.3,4.8c-2.6,0-5.1-1.1-6.8-2.6l1.2-2.4
			c1.7,1.6,3.8,2.4,5.6,2.4c1.9,0,3.1-0.7,3.1-2c0-3.7-9-1.6-9-7.5c0-2.8,2.4-4.6,6.1-4.6c2.2,0,4.3,0.7,5.8,1.7l-1.2,2.5
			C-359.5,645.5-361.3,645-362.6,645z"/>
		<path class="st1" d="M-346.3,653.6v5.5h-2.8v-5.4l-6.2-11.2h2.8l4.7,8.1l4.7-8.1h2.8L-346.3,653.6z"/>
		<path class="st1" d="M-332.7,645c-1.6,0-2.7,0.6-2.7,1.7c0,3.6,9,1.7,8.9,7.7c0,3-2.6,4.8-6.3,4.8c-2.6,0-5.1-1.1-6.8-2.6l1.2-2.4
			c1.7,1.6,3.8,2.4,5.6,2.4c1.9,0,3.1-0.7,3.1-2c0-3.7-9-1.6-9-7.5c0-2.8,2.4-4.6,6.1-4.6c2.2,0,4.3,0.7,5.8,1.7l-1.2,2.5
			C-329.6,645.5-331.4,645-332.7,645z"/>
		<path class="st1" d="M-311.8,642.5v2.5h-5.3v14.1h-2.8V645h-5.2v-2.5H-311.8z"/>
		<path class="st1" d="M-297.6,642.5v2.5h-9.1v4.5h8.1v2.5h-8.1v4.6h9.3v2.5h-12.1v-16.6H-297.6z"/>
		<path class="st1" d="M-290.6,642.5l5.5,11l5.5-11h3.3v16.6h-2.6v-12.4l-5.2,10.7h-1.8l-5.2-10.7v12.4h-2.6v-16.6H-290.6z"/>
		<path class="st1" d="M-380.5,671l4,13.5l4-13.5h2.8l4,13.5l4-13.5h2.9l-5.6,16.6h-2.9l-3.9-13l-4,13h-2.9l-5.5-16.6H-380.5z"/>
		<path class="st1" d="M-351.6,673.5c-1.6,0-2.7,0.6-2.7,1.7c0,3.6,9,1.7,8.9,7.7c0,3-2.6,4.8-6.3,4.8c-2.6,0-5.1-1.1-6.8-2.6
			l1.2-2.4c1.7,1.6,3.8,2.4,5.6,2.4c1.9,0,3.1-0.7,3.1-2c0-3.7-9-1.6-9-7.5c0-2.8,2.4-4.6,6.1-4.6c2.2,0,4.3,0.7,5.8,1.7l-1.2,2.5
			C-348.5,674-350.3,673.5-351.6,673.5z"/>
		<path class="st1" d="M-328.9,676.7c0,3.7-2.4,5.9-6.6,5.9h-3.8v5h-2.8V671h6.6C-331.3,671-328.9,673.1-328.9,676.7z M-331.5,676.7
			c0-2.2-1.4-3.2-4-3.2h-3.7v6.6h3.7C-333,680.1-331.5,679-331.5,676.7z"/>
		<path class="st1" d="M-316.4,683.9h-8.4l-1.6,3.7h-2.9l7.3-16.6h2.9l7.3,16.6h-3L-316.4,683.9z M-317.5,681.4l-3.1-7.4l-3.1,7.4
			H-317.5z"/>
		<path class="st1" d="M-299.1,687.6l-3-5c-0.2,0-0.5,0-0.8,0h-3.9v5h-2.8V671h6.7c4.2,0,6.7,2.1,6.7,5.7c0,2.7-1.2,4.5-3.4,5.4
			l3.7,5.6L-299.1,687.6L-299.1,687.6z M-302.9,680.1c2.6,0,4-1.1,4-3.3s-1.5-3.2-4-3.2h-3.9v6.6L-302.9,680.1L-302.9,680.1z"/>
		<path class="st1" d="M-285.1,673.4c-3.3,0-5.9,2.6-5.9,5.8c0,3.3,2.6,5.9,5.9,5.9c1.7,0,3.4-0.8,4.6-2l1.7,1.9
			c-1.7,1.7-4.1,2.7-6.4,2.7c-4.9,0-8.6-3.7-8.6-8.4c0-4.7,3.8-8.4,8.7-8.4c2.3,0,4.7,1,6.3,2.6l-1.6,2
			C-281.6,674.2-283.4,673.4-285.1,673.4z"/>
		<path class="st1" d="M-273.1,671v16.6h-2.8V671H-273.1z"/>
		<path class="st1" d="M-258,683.9h-8.4l-1.6,3.7h-2.9l7.3-16.6h2.9l7.3,16.6h-3L-258,683.9z M-259.1,681.4l-3.1-7.4l-3.1,7.4
			H-259.1z"/>
	</g>
	<g id="XMLID_303_">
		<path id="XMLID_297_" class="st2" d="M-294.8,586.2l-12.5-4.7c-2-0.7-3.2-2.6-3.2-4.7v-2.4c2.7-2.4,5.7-6.2,7.4-10.5
			c1.9,0,3.6-1.3,4-3.1l1.1-4.2c0.2-0.8,0-1.6-0.5-2.3c-0.5-0.6-1.3-1-2.1-1c0.1-1.1,0.2-2.2,0.2-3.2c0-11.7-6.4-18.1-18.1-18.1
			s-18.1,6.4-18.1,18.1c0,1,0.1,2.1,0.2,3.2c-0.8,0-1.6,0.4-2.1,1s-0.7,1.5-0.5,2.3l1.1,4.2c0.5,1.9,2.1,3.1,4,3.1
			c1.7,4.3,4.8,8.1,7.4,10.5v2.4c0,2.1-1.3,4-3.2,4.7l-12.5,4.7c-5,1.9-8.3,6.6-8.3,12v8.4c0,2.9,2.4,5.3,5.3,5.3h53.3
			c2.9,0,5.3-2.4,5.3-5.3v-8.4C-286.5,592.8-289.8,588.1-294.8,586.2z"/>
		<path id="XMLID_249_" class="st2" d="M-335.3,572.6l-4.8-1.8v-4c-1.4-1.2-2.5-2.9-3-4.8l-1.1-4.2c-0.6-2.4-0.1-4.9,1.4-6.8
			c0.2-0.3,0.5-0.6,0.8-0.9V550c0-4.3,0.8-8,2.2-11.3c-1.9-1-4.1-1.5-6.9-1.5c-8,0-12.5,4.4-12.5,12.5c0,0.3,0,0.6,0,0.9
			c-1.2,0-2.1,0.9-2.1,2.1v2.2c0,2,1.6,3.7,3.7,3.7c1,2.7,2.4,5.2,4.3,7v5.1l-3.8,1.4c-2.5,0.9-4.2,3.4-4.2,6.1v12.3
			c0,2.9,2.4,5.3,5.3,5.3h0.2c0.8-6.6,5.2-12.3,11.5-14.7l12.1-4.6C-333.2,575.5-334.3,574.1-335.3,572.6z"/>
		<path id="XMLID_19_" class="st2" d="M-301.7,572.6l4.8-1.8v-4c1.4-1.2,2.5-2.9,3-4.8l1.1-4.2c0.6-2.4,0.1-4.9-1.4-6.8
			c-0.2-0.3-0.5-0.6-0.8-0.9V550c0-4.3-0.8-8-2.2-11.3c1.9-1,4.1-1.5,6.9-1.5c8,0,12.5,4.4,12.5,12.5c0,0.3,0,0.6,0,0.9
			c1.2,0,2.1,0.9,2.1,2.1v2.2c0,2-1.6,3.7-3.7,3.7c-1,2.7-2.4,5.2-4.3,7v5.1l3.8,1.4c2.5,0.9,4.2,3.4,4.2,6.1v12.3
			c0,2.9-2.4,5.3-5.3,5.3h-0.2c-0.8-6.6-5.2-12.3-11.5-14.7l-12.1-4.6C-303.8,575.5-302.7,574.1-301.7,572.6z"/>
	</g>
</g>
</svg>
