<?xml version="1.0" encoding="utf-8"?>
<!-- Generator: Adobe Illustrator 19.0.0, SVG Export Plug-In . SVG Version: 6.00 Build 0)  -->
<svg version="1.1" id="Warstwa_1" xmlns="http://www.w3.org/2000/svg" xmlns:xlink="http://www.w3.org/1999/xlink" x="0px" y="0px"
	 viewBox="-1204 739 265 262" style="enable-background:new -1204 739 265 262;" xml:space="preserve">
<style type="text/css">
	.st0{fill:#333333;}
	.st1{fill:#FFFFFF;}
</style>
<g>
	<rect id="XMLID_20_" x="-1188" y="751" class="st0" width="238" height="238"/>
	<g>
		<path class="st1" d="M-1108.7,911.3c-1.5,0-2.4,0.6-2.4,1.6c0,3.3,8.1,1.5,8.1,6.9c0,2.7-2.4,4.3-5.6,4.3c-2.4,0-4.6-1-6.1-2.4
			l1.1-2.2c1.5,1.4,3.5,2.2,5.1,2.2c1.8,0,2.8-0.7,2.8-1.8c0-3.3-8.1-1.5-8.1-6.8c0-2.6,2.2-4.2,5.5-4.2c1.9,0,3.9,0.6,5.2,1.5
			l-1,2.2C-1106,911.7-1107.6,911.3-1108.7,911.3z"/>
		<path class="st1" d="M-1094,919v5h-2.5v-4.9l-5.6-10.1h2.5l4.3,7.3l4.2-7.3h2.6L-1094,919z"/>
		<path class="st1" d="M-1081.8,911.3c-1.5,0-2.4,0.6-2.4,1.6c0,3.3,8.1,1.5,8.1,6.9c0,2.7-2.4,4.3-5.6,4.3c-2.4,0-4.6-1-6.1-2.4
			l1.1-2.2c1.5,1.4,3.5,2.2,5.1,2.2c1.8,0,2.8-0.7,2.8-1.8c0-3.3-8.1-1.5-8.1-6.8c0-2.6,2.2-4.2,5.5-4.2c1.9,0,3.9,0.6,5.2,1.5
			l-1,2.2C-1079,911.7-1080.7,911.3-1081.8,911.3z"/>
		<path class="st1" d="M-1063,909v2.3h-4.8V924h-2.5v-12.7h-4.7V909H-1063z"/>
		<path class="st1" d="M-1050.1,909v2.3h-8.2v4.1h7.3v2.2h-7.3v4.1h8.4v2.3h-11v-15H-1050.1z"/>
		<path class="st1" d="M-1043.8,909l4.9,9.9l4.9-9.9h3v15h-2.3l0-11.2l-4.7,9.6h-1.6l-4.7-9.6V924h-2.4v-15H-1043.8z"/>
		<path class="st1" d="M-1144.3,934.7l4.9,9.9l4.9-9.9h3v15h-2.3l0-11.2l-4.7,9.6h-1.6l-4.7-9.6v11.2h-2.4v-15H-1144.3z"/>
		<path class="st1" d="M-1112.9,942.1c0,4.3-3.5,7.6-7.9,7.6s-7.9-3.3-7.9-7.6c0-4.3,3.5-7.6,7.9-7.6S-1112.9,937.9-1112.9,942.1z
			 M-1126.2,942.1c0,3,2.5,5.3,5.4,5.3s5.3-2.4,5.3-5.3s-2.4-5.3-5.3-5.3C-1123.8,936.9-1126.2,939.2-1126.2,942.1z"/>
		<path class="st1" d="M-1107.7,934.7l8,10.8v-10.8h2.5v15h-2.5l-8-10.7v10.7h-2.5v-15H-1107.7z"/>
		<path class="st1" d="M-1090.7,934.7v15h-2.5v-15H-1090.7z"/>
		<path class="st1" d="M-1076.6,934.7v2.3h-4.8v12.7h-2.5v-12.7h-4.7v-2.3H-1076.6z"/>
		<path class="st1" d="M-1060.7,942.1c0,4.3-3.5,7.6-7.9,7.6s-7.9-3.3-7.9-7.6c0-4.3,3.5-7.6,7.9-7.6S-1060.7,937.9-1060.7,942.1z
			 M-1074,942.1c0,3,2.5,5.3,5.4,5.3s5.3-2.4,5.3-5.3s-2.4-5.3-5.3-5.3C-1071.5,936.9-1074,939.2-1074,942.1z"/>
		<path class="st1" d="M-1048.5,949.6l-2.7-4.5c-0.2,0-0.4,0-0.7,0h-3.6v4.5h-2.5v-15h6.1c3.8,0,6,1.9,6,5.1c0,2.4-1.1,4.1-3.1,4.9
			l3.4,5H-1048.5z M-1051.9,942.8c2.3,0,3.6-1,3.6-3c0-2-1.3-2.9-3.6-2.9h-3.6v5.9H-1051.9z"/>
		<path class="st1" d="M-1040,934.7v15h-2.5v-15H-1040z"/>
		<path class="st1" d="M-1033.6,934.7l8,10.8v-10.8h2.5v15h-2.5l-8-10.7v10.7h-2.5v-15H-1033.6z"/>
		<path class="st1" d="M-1008.9,942.3h2.2v5.5c-1.5,1.2-3.8,1.9-5.8,1.9c-4.4,0-7.9-3.3-7.9-7.6s3.5-7.6,8-7.6
			c2.1,0,4.3,0.8,5.8,2.1l-1.4,1.9c-1.2-1.1-2.8-1.7-4.3-1.7c-3.1,0-5.5,2.3-5.5,5.3c0,3,2.4,5.3,5.5,5.3c1.1,0,2.4-0.4,3.4-1V942.3
			z"/>
		<path class="st1" d="M-996.8,947.5c2.4,0,4-1.5,4-4v-8.8h2.5v8.8c0,3.9-2.5,6.3-6.5,6.3s-6.5-2.4-6.5-6.3v-8.8h2.5v8.8
			C-1000.9,946-999.3,947.5-996.8,947.5z"/>
	</g>
	<g id="XMLID_35_">
		<g id="XMLID_209_">
			<path id="XMLID_234_" class="st1" d="M-1089.1,850.3h-7.3c-0.3,0-0.5-0.1-0.7-0.3c-0.4-0.4-0.4-1,0-1.4l21.2-21.7
				c4.8,3.8,7.1,9.9,5.9,15.9c-1.7,8.8-10.3,14.6-19.1,12.9V850.3z"/>
		</g>
		<g id="XMLID_155_">
			<path id="XMLID_157_" class="st1" d="M-1069.3,820.2l8-8.2l17,17.4v-8.9h8.8v17.8l10,10.2c0.2,0.2,0.3,0.4,0.3,0.7
				c0,0.6-0.4,1-1,1h-7.3v28.4h-55.5v-13.6c14,1.7,26.8-8.3,28.5-22.3C-1059.5,834.2-1062.8,825.8-1069.3,820.2z"/>
		</g>
		<g id="XMLID_39_">
			<polygon id="XMLID_154_" class="st1" points="-1128.3,877.5 -1107.8,857 -1103.3,861.5 -1123.8,882 			"/>
		</g>
		<path id="XMLID_36_" class="st1" d="M-1062.7,839.7c0,12.9-10.4,23.3-23.3,23.3c-12.8,0-23.3-10.4-23.3-23.3
			c0-12.8,10.4-23.3,23.3-23.3C-1073.1,816.4-1062.7,826.8-1062.7,839.7L-1062.7,839.7z M-1067.3,839.7c0-10.3-8.3-18.6-18.6-18.6
			c-10.3,0-18.6,8.3-18.6,18.6c0,10.3,8.3,18.6,18.6,18.6C-1075.7,858.3-1067.3,849.9-1067.3,839.7L-1067.3,839.7z"/>
	</g>
</g>
</svg>
