<?xml version="1.0" encoding="utf-8"?>
<!-- Generator: Adobe Illustrator 19.0.0, SVG Export Plug-In . SVG Version: 6.00 Build 0)  -->
<svg version="1.1" id="Warstwa_1" xmlns="http://www.w3.org/2000/svg" xmlns:xlink="http://www.w3.org/1999/xlink" x="0px" y="0px"
	 viewBox="-1266 803.5 281 289" style="enable-background:new -1266 803.5 281 289;" xml:space="preserve">
<style type="text/css">
	.st0{fill:#333333;}
	.st1{fill:#FFFFFF;}
	.st2{fill:#FFFFFF;stroke:#FFFFFF;stroke-width:2;stroke-miterlimit:10;}
</style>
<rect id="XMLID_21_" x="-1256" y="812.5" class="st0" width="264" height="264"/>
<g>
	<path class="st1" d="M-1168.1,989c-1.6,0-2.7,0.6-2.7,1.7c0,3.6,9,1.7,8.9,7.7c0,3-2.6,4.8-6.3,4.8c-2.6,0-5.1-1.1-6.8-2.6l1.2-2.4
		c1.7,1.6,3.8,2.4,5.6,2.4c1.9,0,3.1-0.7,3.1-2c0-3.7-9-1.6-9-7.5c0-2.8,2.4-4.6,6.1-4.6c2.2,0,4.3,0.7,5.8,1.7l-1.2,2.5
		C-1165,989.5-1166.8,989-1168.1,989z"/>
	<path class="st1" d="M-1151.8,997.6v5.5h-2.8v-5.4l-6.2-11.2h2.8l4.7,8.1l4.7-8.1h2.8L-1151.8,997.6z"/>
	<path class="st1" d="M-1138.2,989c-1.6,0-2.7,0.6-2.7,1.7c0,3.6,9,1.7,8.9,7.7c0,3-2.6,4.8-6.3,4.8c-2.6,0-5.1-1.1-6.8-2.6l1.2-2.4
		c1.7,1.6,3.8,2.4,5.6,2.4c1.9,0,3.1-0.7,3.1-2c0-3.7-9-1.6-9-7.5c0-2.8,2.4-4.6,6.1-4.6c2.2,0,4.3,0.7,5.8,1.7l-1.2,2.5
		C-1135.1,989.5-1136.9,989-1138.2,989z"/>
	<path class="st1" d="M-1117.3,986.5v2.5h-5.3v14.1h-2.8V989h-5.2v-2.5H-1117.3z"/>
	<path class="st1" d="M-1103.1,986.5v2.5h-9.1v4.5h8.1v2.5h-8.1v4.6h9.3v2.5h-12.1v-16.6H-1103.1z"/>
	<path class="st1" d="M-1096.1,986.5l5.5,11l5.5-11h3.3v16.6h-2.6l0-12.4l-5.2,10.7h-1.8l-5.2-10.7v12.4h-2.6v-16.6H-1096.1z"/>
	<path class="st1" d="M-1186,1015l4,13.5l4-13.5h2.8l4,13.5l4-13.5h2.9l-5.6,16.6h-2.9l-3.9-13l-4,13h-2.9l-5.5-16.6H-1186z"/>
	<path class="st1" d="M-1157.1,1017.5c-1.6,0-2.7,0.6-2.7,1.7c0,3.6,9,1.7,8.9,7.7c0,3-2.6,4.8-6.3,4.8c-2.6,0-5.1-1.1-6.8-2.6
		l1.2-2.4c1.7,1.6,3.8,2.4,5.6,2.4c1.9,0,3.1-0.7,3.1-2c0-3.7-9-1.6-9-7.5c0-2.8,2.4-4.6,6.1-4.6c2.2,0,4.3,0.7,5.8,1.7l-1.2,2.5
		C-1154,1018-1155.8,1017.5-1157.1,1017.5z"/>
	<path class="st1" d="M-1134.4,1020.7c0,3.7-2.4,5.9-6.6,5.9h-3.8v5h-2.8V1015h6.6C-1136.8,1015-1134.4,1017.1-1134.4,1020.7z
		 M-1137,1020.7c0-2.2-1.4-3.2-4-3.2h-3.7v6.6h3.7C-1138.5,1024.1-1137,1023-1137,1020.7z"/>
	<path class="st1" d="M-1121.9,1027.9h-8.4l-1.6,3.7h-2.9l7.3-16.6h2.9l7.3,16.6h-3L-1121.9,1027.9z M-1123,1025.4l-3.1-7.4
		l-3.1,7.4H-1123z"/>
	<path class="st1" d="M-1104.6,1031.6l-3-5c-0.2,0-0.5,0-0.8,0h-3.9v5h-2.8V1015h6.7c4.2,0,6.7,2.1,6.7,5.7c0,2.7-1.2,4.5-3.4,5.4
		l3.7,5.6H-1104.6z M-1108.4,1024.1c2.6,0,4-1.1,4-3.3c0-2.2-1.5-3.2-4-3.2h-3.9v6.6H-1108.4z"/>
	<path class="st1" d="M-1090.6,1017.4c-3.3,0-5.9,2.6-5.9,5.8c0,3.3,2.6,5.9,5.9,5.9c1.7,0,3.4-0.8,4.6-2l1.7,1.9
		c-1.7,1.7-4.1,2.7-6.4,2.7c-4.9,0-8.6-3.7-8.6-8.4c0-4.7,3.8-8.4,8.7-8.4c2.3,0,4.7,1,6.3,2.6l-1.6,2
		C-1087.1,1018.2-1088.9,1017.4-1090.6,1017.4z"/>
	<path class="st1" d="M-1078.6,1015v16.6h-2.8V1015H-1078.6z"/>
	<path class="st1" d="M-1063.5,1027.9h-8.4l-1.6,3.7h-2.9l7.3-16.6h2.9l7.3,16.6h-3L-1063.5,1027.9z M-1064.6,1025.4l-3.1-7.4
		l-3.1,7.4H-1064.6z"/>
</g>
<g id="XMLID_303_">
	<path id="XMLID_297_" class="st2" d="M-1100.3,930.2l-12.5-4.7c-2-0.7-3.2-2.6-3.2-4.7v-2.4c2.7-2.4,5.7-6.2,7.4-10.5
		c1.9,0,3.6-1.3,4-3.1l1.1-4.2c0.2-0.8,0-1.6-0.5-2.3c-0.5-0.6-1.3-1-2.1-1c0.1-1.1,0.2-2.2,0.2-3.2c0-11.7-6.4-18.1-18.1-18.1
		s-18.1,6.4-18.1,18.1c0,1,0.1,2.1,0.2,3.2c-0.8,0-1.6,0.4-2.1,1c-0.5,0.6-0.7,1.5-0.5,2.3l1.1,4.2c0.5,1.9,2.1,3.1,4,3.1
		c1.7,4.3,4.8,8.1,7.4,10.5v2.4c0,2.1-1.3,4-3.2,4.7l-12.5,4.7c-5,1.9-8.3,6.6-8.3,12v8.4c0,2.9,2.4,5.3,5.3,5.3h53.3
		c2.9,0,5.3-2.4,5.3-5.3v-8.4C-1092,936.8-1095.3,932.1-1100.3,930.2z"/>
	<path id="XMLID_249_" class="st2" d="M-1140.8,916.6l-4.8-1.8v-4c-1.4-1.2-2.5-2.9-3-4.8l-1.1-4.2c-0.6-2.4-0.1-4.9,1.4-6.8
		c0.2-0.3,0.5-0.6,0.8-0.9c0,0,0-0.1,0-0.1c0-4.3,0.8-8,2.2-11.3c-1.9-1-4.1-1.5-6.9-1.5c-8,0-12.5,4.4-12.5,12.5c0,0.3,0,0.6,0,0.9
		c-1.2,0-2.1,0.9-2.1,2.1v2.2c0,2,1.6,3.7,3.7,3.7c1,2.7,2.4,5.2,4.3,7v5.1l-3.8,1.4c-2.5,0.9-4.2,3.4-4.2,6.1v12.3
		c0,2.9,2.4,5.3,5.3,5.3h0.2c0.8-6.6,5.2-12.3,11.5-14.7l12.1-4.6C-1138.7,919.5-1139.8,918.1-1140.8,916.6z"/>
	<path id="XMLID_19_" class="st2" d="M-1107.2,916.6l4.8-1.8v-4c1.4-1.2,2.5-2.9,3-4.8l1.1-4.2c0.6-2.4,0.1-4.9-1.4-6.8
		c-0.2-0.3-0.5-0.6-0.8-0.9c0,0,0-0.1,0-0.1c0-4.3-0.8-8-2.2-11.3c1.9-1,4.1-1.5,6.9-1.5c8,0,12.5,4.4,12.5,12.5c0,0.3,0,0.6,0,0.9
		c1.2,0,2.1,0.9,2.1,2.1v2.2c0,2-1.6,3.7-3.7,3.7c-1,2.7-2.4,5.2-4.3,7v5.1l3.8,1.4c2.5,0.9,4.2,3.4,4.2,6.1v12.3
		c0,2.9-2.4,5.3-5.3,5.3h-0.2c-0.8-6.6-5.2-12.3-11.5-14.7l-12.1-4.6C-1109.3,919.5-1108.2,918.1-1107.2,916.6z"/>
</g>
</svg>
