<?xml version="1.0" encoding="utf-8"?>
<!-- Generator: Adobe Illustrator 19.0.0, SVG Export Plug-In . SVG Version: 6.00 Build 0)  -->
<svg version="1.1"
	 id="Warstwa_1" xmlns:dc="http://purl.org/dc/elements/1.1/" xmlns:cc="http://creativecommons.org/ns#" xmlns:rdf="http://www.w3.org/1999/02/22-rdf-syntax-ns#" xmlns:svg="http://www.w3.org/2000/svg" xmlns:sodipodi="http://sodipodi.sourceforge.net/DTD/sodipodi-0.dtd" xmlns:inkscape="http://www.inkscape.org/namespaces/inkscape"
	 xmlns="http://www.w3.org/2000/svg" xmlns:xlink="http://www.w3.org/1999/xlink" x="0px" y="0px" viewBox="-1149 777 181 186"
	 style="enable-background:new -1149 777 181 186;" xml:space="preserve">
<style type="text/css">
	.st0{fill:#ED9842;}
	.st1{fill:#FFFFFF;}
</style>
<rect id="XMLID_2252_" x="-1131.4" y="790" class="st0" width="150.7" height="152.2"/>
<g id="XMLID_2841_" transform="translate(0,-952.36218)">
	<path id="XMLID_2882_" class="st1" d="M-1055.1,1784.5l-67.8,25.6l67.8,25.6l67.8-25.6L-1055.1,1784.5z M-1115.3,1816.1v12.7
		c0.9-0.4,1.9-0.7,3-0.7c1.1,0,2.1,0.3,3,0.7v-10.5L-1115.3,1816.1z M-1097.2,1822.9v21.8c0,6.3,18.8,15.1,42.2,15.1
		c23.4,0,42.2-8.8,42.2-15.1v-21.8l-41.1,15.5c-0.7,0.3-1.5,0.3-2.2,0L-1097.2,1822.9L-1097.2,1822.9z M-1112.3,1831.2
		c-2.5,0-4.5,2-4.5,4.5c0,2.5,2,4.5,4.5,4.5c2.5,0,4.5-2,4.5-4.5C-1107.8,1833.2-1109.8,1831.2-1112.3,1831.2z"/>
</g>
</svg>
