<?xml version="1.0" encoding="utf-8"?>
<!-- Generator: Adobe Illustrator 19.0.0, SVG Export Plug-In . SVG Version: 6.00 Build 0)  -->
<svg version="1.1" id="Warstwa_1" xmlns="http://www.w3.org/2000/svg" xmlns:xlink="http://www.w3.org/1999/xlink" x="0px" y="0px"
	 viewBox="-1149 852 180 180" style="enable-background:new -1149 852 180 180;" xml:space="preserve">
<style type="text/css">
	.st0{fill:#ED9842;}
	.st1{fill:#FFFFFF;}
</style>
<rect id="XMLID_823_" x="-1131.1" y="867.5" class="st0" width="150.1" height="151.6"/>
<g id="XMLID_944_">
	<path id="XMLID_945_" class="st1" d="M-1026.5,945.8l20.9-13.3v47.3c0,2-1.6,3.6-3.6,3.6h-90.9c-2,0-3.6-1.6-3.6-3.6v-47.3
		l20.9,13.3c1.8,1.1,3.7,1.7,5.9,1.7h16.3v6c0,0.7,0.5,1.2,1.2,1.2h9.6c0.7,0,1.2-0.5,1.2-1.2v-6h16.3
		C-1030.2,947.4-1028.2,946.8-1026.5,945.8z M-1058.2,940.3v12h7.2v-12H-1058.2z M-1005.6,915.1v14.5l-22.3,14.1
		c-1.3,0.8-2.9,1.3-4.5,1.3h-16.3v-6c0-0.7-0.5-1.2-1.2-1.2h-9.6c-0.7,0-1.2,0.5-1.2,1.2v6h-16.3c-1.7,0-3.2-0.5-4.5-1.3l-22.3-14.1
		v-14.5c0-2,1.6-3.6,3.6-3.6h27.5v-10.8c0-2,1.6-3.6,3.6-3.6h28.7c2,0,3.6,1.6,3.6,3.6v10.8h27.5
		C-1007.1,911.5-1005.6,913.1-1005.6,915.1z M-1041.5,902h-26.3v9.6h26.3V902z"/>
</g>
</svg>
