<?xml version="1.0" encoding="utf-8"?>
<!-- Generator: Adobe Illustrator 19.0.0, SVG Export Plug-In . SVG Version: 6.00 Build 0)  -->
<svg version="1.1" id="Warstwa_1" xmlns="http://www.w3.org/2000/svg" xmlns:xlink="http://www.w3.org/1999/xlink" x="0px" y="0px"
	 viewBox="-1215 856.5 165 162" style="enable-background:new -1215 856.5 165 162;" xml:space="preserve">
<style type="text/css">
	.st0{fill:#ED9842;}
	.st1{fill:#FFFFFF;stroke:#FFFFFF;stroke-miterlimit:10;}
</style>
<rect id="XMLID_2838_" x="-1199.3" y="868.5" class="st0" width="141.7" height="143"/>
<g id="XMLID_717_">
	<path id="XMLID_929_" class="st1" d="M-1103.2,958.6l-14.2-5.4c-2.2-0.8-3.7-3-3.7-5.3v-2.7c3-2.8,6.5-7.1,8.4-12
		c2.2,0,4.1-1.5,4.6-3.6l1.2-4.8c0.2-0.9,0-1.8-0.5-2.6c-0.6-0.7-1.4-1.2-2.4-1.2c0.1-1.2,0.2-2.5,0.2-3.6
		c0-13.3-7.3-20.6-20.6-20.6c-13.3,0-20.6,7.3-20.6,20.6c0,1.2,0.1,2.4,0.2,3.6c-0.9,0-1.8,0.4-2.4,1.2c-0.6,0.7-0.8,1.7-0.5,2.6
		l1.2,4.8c0.5,2.1,2.4,3.6,4.6,3.6c1.9,4.9,5.4,9.2,8.4,12v2.7c0,2.4-1.5,4.5-3.7,5.3l-14.2,5.4c-5.7,2.1-9.4,7.6-9.4,13.6v9.6
		c0,3.4,2.7,6.1,6.1,6.1h60.7c3.4,0,6.1-2.7,6.1-6.1v-9.6C-1093.8,966.1-1097.6,960.7-1103.2,958.6z"/>
	<path id="XMLID_923_" class="st1" d="M-1149.4,943.1l-5.5-2v-4.6c-1.6-1.4-2.9-3.3-3.4-5.5l-1.2-4.8c-0.7-2.7-0.1-5.6,1.6-7.8
		c0.3-0.4,0.6-0.7,0.9-1c0,0,0-0.1,0-0.1c0-4.9,0.9-9.2,2.5-12.8c-2.1-1.1-4.7-1.8-7.8-1.8c-9.1,0-14.2,5-14.2,14.2c0,0.3,0,0.7,0,1
		c-1.3,0-2.4,1.1-2.4,2.4v2.6c0,2.3,1.9,4.2,4.2,4.2c1.1,3.1,2.8,6,4.9,8v5.9l-4.3,1.6c-2.9,1.1-4.8,3.8-4.8,6.9v14
		c0,3.4,2.7,6.1,6.1,6.1h0.2c1-7.5,6-14,13.1-16.7l13.7-5.2C-1147,946.4-1148.2,944.8-1149.4,943.1z"/>
	<path id="XMLID_828_" class="st1" d="M-1111.1,943.1l5.5-2v-4.6c1.6-1.4,2.9-3.3,3.4-5.5l1.2-4.8c0.7-2.7,0.1-5.6-1.6-7.8
		c-0.3-0.4-0.6-0.7-0.9-1c0,0,0-0.1,0-0.1c0-4.9-0.9-9.2-2.5-12.8c2.1-1.1,4.7-1.8,7.8-1.8c9.1,0,14.2,5,14.2,14.2c0,0.3,0,0.7,0,1
		c1.3,0,2.4,1.1,2.4,2.4v2.6c0,2.3-1.9,4.2-4.2,4.2c-1.1,3.1-2.8,6-4.9,8v5.9l4.3,1.6c2.9,1.1,4.8,3.8,4.8,6.9v14
		c0,3.4-2.7,6.1-6.1,6.1h-0.2c-1-7.5-6-14-13.1-16.7l-13.7-5.2C-1113.5,946.4-1112.2,944.8-1111.1,943.1z"/>
</g>
</svg>
