<?xml version="1.0" encoding="utf-8"?>
<!-- Generator: Adobe Illustrator 19.0.0, SVG Export Plug-In . SVG Version: 6.00 Build 0)  -->
<svg version="1.1" id="Warstwa_1" xmlns="http://www.w3.org/2000/svg" xmlns:xlink="http://www.w3.org/1999/xlink" x="0px" y="0px"
	 viewBox="-461 344.6 100 80.4" style="enable-background:new -461 344.6 100 80.4;" xml:space="preserve">
<style type="text/css">
	.st0{fill:#ED9842;}
</style>
<path d="M-423.4,344.6c-20.7,0-37.5,11.3-37.5,25.2c0,7.5,4.9,14.2,12.6,18.8c-1.6,3.1-4.9,7-11.6,12.2c-1.1,0.9-2.5,2.1,2,1.2
	c7.4-1.5,15.4-5.3,21.5-8.7c4.1,1,8.5,1.6,13.1,1.6c20.7,0,37.5-11.3,37.5-25.2C-385.9,355.8-402.7,344.6-423.4,344.6z"/>
<path class="st0" d="M-361.8,407.7c-5.8-4.5-6.6-7.1-6.9-9c4-2.9,6.5-6.8,6.5-11.1c0-8-8.5-14.6-19.8-16.1
	c-0.9,11.4-10.9,20.9-25,25.1c4.4,4.5,11.9,7.4,20.4,7.4c3.7,0,7.2-0.5,10.3-1.5c3.3,2.1,8.9,5.4,14,6.4
	C-360.1,409.3-361.2,408.1-361.8,407.7z"/>
</svg>
