<?xml version="1.0" encoding="utf-8"?>
<!-- Generator: Adobe Illustrator 19.0.0, SVG Export Plug-In . SVG Version: 6.00 Build 0)  -->
<svg version="1.1" id="Warstwa_1" xmlns="http://www.w3.org/2000/svg" xmlns:xlink="http://www.w3.org/1999/xlink" x="0px" y="0px"
	 viewBox="-487 355 48 60" style="enable-background:new -487 355 48 60;" xml:space="preserve">
<style type="text/css">
	.st0{fill:#ED9842;}
</style>
<path class="st0" d="M-471.1,372.1c-3.4,0-6.4,2-7.8,4.9c2,2,4.8,3.3,7.8,3.3c3.1,0,5.8-1.3,7.8-3.3
	C-464.7,374.1-467.6,372.1-471.1,372.1z"/>
<circle class="st0" cx="-471.1" cy="366.2" r="4"/>
<path d="M-457.9,379.9c1.8-2.6,2.8-5.7,2.8-9c0-8.7-7.2-15.9-16-15.9c-8.7,0-15.9,7.2-15.9,15.9c0,8.7,7.2,15.9,15.9,15.9
	c3.3,0,6.4-1,9-2.8l3.2,3.2l4.2-4.2L-457.9,379.9z M-471.1,383.3c-6.8,0-12.3-5.5-12.3-12.3s5.5-12.3,12.3-12.3
	c6.8,0,12.3,5.5,12.3,12.3C-458.7,377.7-464.3,383.3-471.1,383.3z"/>
<path d="M-440.3,395.2l-0.9-0.9l-6.5,6.5l0.9,0.9c1.8,1.8,4.7,1.8,6.5,0C-438.6,399.9-438.6,397-440.3,395.2z"/>
<rect x="-455.1" y="385.3" transform="matrix(-0.7071 0.7071 -0.7071 -0.7071 -492.4263 986.7708)" width="9.1" height="12.2"/>
</svg>
