<?xml version="1.0" encoding="iso-8859-1"?>
<!-- Generator: Adobe Illustrator 19.0.0, SVG Export Plug-In . SVG Version: 6.00 Build 0)  -->
<svg version="1.1" id="Layer_1" xmlns="http://www.w3.org/2000/svg" xmlns:xlink="http://www.w3.org/1999/xlink" x="0px" y="0px"
	 viewBox="0 0 511.999 511.999" style="enable-background:new 0 0 511.999 511.999;" xml:space="preserve">
<g>
	<g>
		<circle cx="255.996" cy="159.399" r="79.551"/>
	</g>
</g>
<g>
	<g>
		<path d="M256.001,238.955c-84.236,0-152.524,68.287-152.524,152.523c0,22.463,18.21,40.673,40.673,40.673H367.85
			c22.465,0,40.674-18.21,40.674-40.673C408.524,307.242,340.235,238.955,256.001,238.955z"/>
	</g>
</g>
<g>
	<g>
		<path d="M155.427,106.536c-10.156-9.496-23.79-15.319-38.792-15.319c-31.382,0-56.822,25.44-56.822,56.822
			c0,31.382,25.44,56.822,56.822,56.822c11.675,0,22.523-3.525,31.55-9.563c-3.771-11.289-5.83-23.354-5.83-35.895
			C142.356,140.327,147.088,122.338,155.427,106.536z"/>
	</g>
</g>
<g>
	<g>
		<path d="M395.365,91.217c-15.001,0-28.635,5.823-38.791,15.319c8.34,15.801,13.071,33.791,13.071,52.868
			c0,12.541-2.058,24.605-5.83,35.895c9.026,6.038,19.875,9.563,31.55,9.563c31.382,0,56.822-25.441,56.822-56.822
			S426.747,91.217,395.365,91.217z"/>
	</g>
</g>
<g>
	<g>
		<path d="M163.821,225.745c-14.215,8.65-30.443,13.21-47.185,13.21c-21.254,0-40.812-7.351-56.31-19.616
			C24.362,239.204,0,277.503,0,321.496C0,338.674,13.926,352.6,31.103,352.6h42.361c11.378-53.468,45.721-98.537,92.178-124.355
			C165.017,227.426,164.425,226.582,163.821,225.745z"/>
	</g>
</g>
<g>
	<g>
		<path d="M451.674,219.338c-15.499,12.266-35.056,19.617-56.31,19.617c-16.742,0-32.971-4.561-47.186-13.21
			c-0.603,0.836-1.197,1.681-1.822,2.5c46.457,25.818,80.8,70.887,92.178,124.355h42.361c17.179,0,31.103-13.925,31.103-31.103
			C512,277.503,487.639,239.204,451.674,219.338z"/>
	</g>
</g>
<g>
</g>
<g>
</g>
<g>
</g>
<g>
</g>
<g>
</g>
<g>
</g>
<g>
</g>
<g>
</g>
<g>
</g>
<g>
</g>
<g>
</g>
<g>
</g>
<g>
</g>
<g>
</g>
<g>
</g>
</svg>
