<?xml version="1.0" encoding="utf-8"?>
<!-- Generator: Adobe Illustrator 19.0.0, SVG Export Plug-In . SVG Version: 6.00 Build 0)  -->
<svg version="1.1" id="Warstwa_1" xmlns="http://www.w3.org/2000/svg" xmlns:xlink="http://www.w3.org/1999/xlink" x="0px" y="0px"
	 viewBox="-278 234 111 97" style="enable-background:new -278 234 111 97;" xml:space="preserve">
<style type="text/css">
	.st0{fill:#ED9842;}
</style>
<g id="XMLID_609_" transform="translate(0,-1020.3622)">
	<path id="XMLID_610_" class="st0" d="M-256.3,1261.9c-2.8,0-5.1,2.3-5.1,5.1v50.8c0,2.8,2.3,5.1,5.1,5.1h25.9
		c1.2,3.1,1,5.3-0.1,7.4c-1.1,2.2-3.3,4.2-6,6.2h-6.2c-0.9,0-1.7,0.8-1.7,1.7c0,0.9,0.8,1.7,1.7,1.7h6.8h33.8h6.8
		c0.9,0,1.7-0.8,1.7-1.7c0-0.9-0.8-1.7-1.7-1.7h-6.2c-2.2-1.8-4.3-3.4-5.5-5.4c-1.1-1.9-1.6-4.3-0.5-8.1h25.7c2.8,0,5.1-2.3,5.1-5.1
		V1267c0-2.8-2.3-5.1-5.1-5.1H-256.3z M-256.3,1265.3h74.4c1,0,1.7,0.7,1.7,1.7v38.9h-3.4v-30.5h-10.2v1.7v28.8h-3.4v-23.7h-10.2
		v1.7v22h-3.4V1289h-10.2v1.7v15.2H-258V1267C-258,1266-257.3,1265.3-256.3,1265.3z M-220.8,1268.7v3.4h23.7v-3.4H-220.8z
		 M-239.4,1272.1c-8.4,0-15.2,6.8-15.2,15.2c0,8.4,6.8,15.2,15.2,15.2s15.2-6.8,15.2-15.2C-224.2,1278.9-231,1272.1-239.4,1272.1z
		 M-220.8,1275.5v3.4h16.9v-3.4H-220.8z M-241.1,1275.6v8.2l-6.5-5.1C-245.9,1277.1-243.6,1276-241.1,1275.6z M-237.7,1275.6
		c5.7,0.8,10.2,5.7,10.2,11.7c0,1.6-0.3,3-0.9,4.4l-9.3-5.4V1275.6z M-190.4,1278.8h3.4v27.1h-3.4V1278.8z M-249.7,1281.5l6.5,5.1
		l-8,2.1c-0.1-0.5-0.1-0.9-0.1-1.4C-251.3,1285.2-250.7,1283.2-249.7,1281.5z M-203.9,1285.6h3.4v20.3h-3.4V1285.6z M-241.1,1289.5
		v9.5c-4.1-0.6-7.6-3.3-9.2-7L-241.1,1289.5z M-237.7,1290.2l7.6,4.4c-1.8,2.3-4.5,3.9-7.6,4.4V1290.2z M-217.4,1292.4h3.4v13.5
		h-3.4V1292.4z M-258,1309.3h77.8v8.5c0,1-0.7,1.7-1.7,1.7h-74.4c-1,0-1.7-0.7-1.7-1.7V1309.3z M-219.1,1312.2
		c-1.4,0-2.5,1.2-2.5,2.5s1.2,2.5,2.5,2.5s2.5-1.2,2.5-2.5S-217.7,1312.2-219.1,1312.2z M-227.2,1322.9h16.3
		c-0.8,3.9-0.6,7.3,0.9,9.7c1,1.6,2.4,2.6,3.7,3.7h-25.8c1.6-1.5,3.5-2.7,4.5-4.6C-226.3,1329.3-226.3,1326.2-227.2,1322.9z"/>
</g>
</svg>
