<?xml version="1.0" encoding="utf-8"?>
<!-- Generator: Adobe Illustrator 19.0.0, SVG Export Plug-In . SVG Version: 6.00 Build 0)  -->
<svg version="1.1" id="Warstwa_1" xmlns="http://www.w3.org/2000/svg" xmlns:xlink="http://www.w3.org/1999/xlink" x="0px" y="0px"
	 viewBox="-283 217 127 128" style="enable-background:new -283 217 127 128;" xml:space="preserve">
<style type="text/css">
	.st0{fill:#ED9842;}
</style>
<g id="XMLID_583_" transform="translate(0,-952.36218)">
	<path id="XMLID_584_" class="st0" d="M-218.5,1183.3c-7.7,0-14,6.3-14,14s6.3,14,14,14c7.7,0,14-6.3,14-14
		S-210.8,1183.3-218.5,1183.3z M-218.5,1187.3c5.5,0,10,4.5,10,10s-4.5,10-10,10c-5.5,0-10-4.5-10-10S-224.1,1187.3-218.5,1187.3z
		 M-194.7,1209.3c-0.3,0-0.5,0.1-0.8,0.2l-12.3,6.2c-3.4-0.9-7-1.3-10.8-1.3c-16.7,0-31,9.2-34.9,21.9c-2.7-0.4-5.1-2.3-5.1-5.9
		c0-1.1-0.9-2-2-2c-0.1,0-0.2,0-0.3,0c-1,0.1-1.8,1-1.8,2c0,5.4,3.9,9,8.2,9.8c-0.1,1-0.2,2.1-0.2,3.2c0,8.6,4.8,16.3,12,21.5v14.5
		c0,1.1,0.9,2,2,2h13c0.9,0,1.7-0.6,1.9-1.5l2.3-7.9c1.6,0.2,3.1,0.4,4.8,0.4s3.2-0.2,4.8-0.4l2.3,7.9c0.2,0.9,1,1.5,1.9,1.5h13
		c1.1,0,2-0.9,2-2v-14.4c3.9-2.8,7-6.3,9.1-10.3l9.4-2.4c0.9-0.2,1.5-1,1.5-1.9v-13c0-0.9-0.6-1.7-1.5-1.9l-8.8-2.2
		c-2-4.3-5.2-8.1-9.3-11.1l1.6-10.4c0.2-1.1-0.6-2.1-1.7-2.3C-194.4,1209.3-194.6,1209.3-194.7,1209.3L-194.7,1209.3z
		 M-197.1,1214.8l-1.2,7.8c-0.1,0.8,0.2,1.5,0.8,1.9c4.3,3,7.6,6.8,9.4,11.1c0.2,0.6,0.7,1,1.3,1.2l8.2,2.1v9.9l-8.7,2.2
		c-0.6,0.1-1.1,0.5-1.3,1.1c-1.9,3.9-5,7.5-9.1,10.3c-0.5,0.4-0.9,1-0.9,1.7v13.4h-9.5l-2.3-8c-0.3-1-1.2-1.6-2.2-1.4
		c-1.9,0.3-4,0.5-6,0.5c-2,0-4.1-0.2-6-0.5c-1-0.1-1.9,0.5-2.2,1.4l-2.3,8h-9.5v-13.4c0-0.7-0.3-1.3-0.9-1.7
		c-6.9-4.7-11.1-11.4-11.1-18.9c0-13.6,14.1-25,32-25c3.7,0,7.2,0.5,10.5,1.4c0.5,0.1,1,0.1,1.4-0.1L-197.1,1214.8L-197.1,1214.8z
		 M-218.5,1221.3c-4.6,0-8.9,0.8-12.8,2.4c-1,0.4-1.5,1.6-1.1,2.6c0.4,1,1.6,1.5,2.6,1.1c0,0,0,0,0,0c3.3-1.3,7.2-2.1,11.3-2.1
		c2.6,0,5.2,0.3,7.5,0.9c1.1,0.3,2.2-0.4,2.4-1.5c0.3-1.1-0.4-2.2-1.5-2.4c0,0,0,0,0,0C-212.8,1221.7-215.6,1221.3-218.5,1221.3z
		 M-198.5,1233.3c-2.2,0-4,1.8-4,4c0,2.2,1.8,4,4,4c2.2,0,4-1.8,4-4C-194.5,1235.1-196.3,1233.3-198.5,1233.3z"/>
</g>
</svg>
