<?xml version="1.0" encoding="utf-8"?>
<!-- Generator: Adobe Illustrator 19.0.0, SVG Export Plug-In . SVG Version: 6.00 Build 0)  -->
<svg version="1.1" id="Warstwa_1" xmlns="http://www.w3.org/2000/svg" xmlns:xlink="http://www.w3.org/1999/xlink" x="0px" y="0px"
	 viewBox="-277 223 116 118" style="enable-background:new -277 223 116 118;" xml:space="preserve">
<style type="text/css">
	.st0{fill:#ED9842;}
</style>
<g id="XMLID_534_">
	<path id="XMLID_535_" class="st0" d="M-180.8,228.2h-76.4c-7.8,0-14.1,6.3-14.1,14.1v76.4c0,7.8,6.3,14.1,14.1,14.1h37.7l0.1-37.4
		h-9.7c-1.3,0-2.3-1-2.3-2.3l0-12c0-1.3,1-2.3,2.3-2.3h9.7v-11.6c0-13.5,8.2-20.9,20.3-20.9h9.9c1.3,0,2.3,1,2.3,2.3v10.2
		c0,1.3-1,2.3-2.3,2.3l-6.1,0c-6.6,0-7.8,3.1-7.8,7.7v10.1h14.4c1.4,0,2.4,1.2,2.3,2.6l-1.4,12c-0.1,1.2-1.1,2-2.3,2h-12.9
		l-0.1,37.4h22.4c7.8,0,14.1-6.3,14.1-14.1v-76.4C-166.7,234.5-173,228.2-180.8,228.2L-180.8,228.2z M-180.8,228.2"/>
</g>
</svg>
