<?xml version="1.0" encoding="utf-8"?>
<!-- Generator: Adobe Illustrator 19.0.0, SVG Export Plug-In . SVG Version: 6.00 Build 0)  -->
<svg version="1.1" id="Warstwa_1" xmlns="http://www.w3.org/2000/svg" xmlns:xlink="http://www.w3.org/1999/xlink" x="0px" y="0px"
	 viewBox="-273 222 112 114" style="enable-background:new -273 222 112 114;" xml:space="preserve">
<style type="text/css">
	.st0{fill:none;stroke:#ED9842;stroke-width:3;stroke-miterlimit:10;}
</style>
<g id="XMLID_628_">
	<path id="XMLID_637_" class="st0" d="M-224.6,256.3c-4.6,0-8.3,3.7-8.3,8.3c0,4.6,3.7,8.3,8.3,8.3c4.6,0,8.3-3.7,8.3-8.3
		S-219.9,256.3-224.6,256.3z"/>
	<path id="XMLID_636_" class="st0" d="M-216.9,275.9h-15.4c-4,0-7.2,3.2-7.2,7.2v6.7h29.9v-6.7
		C-209.6,279.2-212.8,275.9-216.9,275.9z"/>
	<path id="XMLID_632_" class="st0" d="M-224.6,233.6c-21.8,0-39.7,17.7-39.7,39.7c0,21.8,17.7,39.7,39.7,39.7
		c7.1,0,14.2-1.9,20.4-5.6l1.4-0.8l18.2,18c1.2,1.2,2.8,1.9,4.6,1.9c1.7,0,3.4-0.7,4.6-1.9c1.2-1.2,1.9-2.8,1.9-4.6
		c0-1.8-0.7-3.2-1.9-4.6l-17.9-17.6l1.6-2.3c4.4-6.6,6.8-14.3,6.8-22.2C-184.9,251.3-202.6,233.6-224.6,233.6z M-224.6,302.1
		c-16,0-28.9-13-28.9-28.9c0-16,13-28.9,28.9-28.9s28.9,13,28.9,28.9C-195.7,289.1-208.6,302.1-224.6,302.1z"/>
</g>
</svg>
