<?xml version="1.0" encoding="utf-8"?>
<!-- Generator: Adobe Illustrator 19.0.0, SVG Export Plug-In . SVG Version: 6.00 Build 0)  -->
<svg version="1.1" id="Warstwa_1" xmlns="http://www.w3.org/2000/svg" xmlns:xlink="http://www.w3.org/1999/xlink" x="0px" y="0px"
	 viewBox="-429 218 100 125" style="enable-background:new -429 218 100 125;" xml:space="preserve">
<style type="text/css">
	.st0{fill:#ED9842;}
</style>
<path id="XMLID_519_" class="st0" d="M-359,249.4h-40.3c-5.8,0-10.5,4.7-10.5,10.5v40.3c0,5.8,4.7,10.5,10.5,10.5h40.3
	c5.8,0,10.5-4.7,10.5-10.5v-40.3C-348.5,254.1-353.2,249.4-359,249.4z M-388.7,274.7L-388.7,274.7
	C-388.7,274.7-388.7,274.7-388.7,274.7c0.1-0.2,0.3-0.5,0.4-0.7c0.1-0.1,0.2-0.2,0.3-0.4c0.1-0.1,0.2-0.3,0.3-0.4
	c0.1-0.1,0.2-0.2,0.3-0.3c0.2-0.2,0.3-0.4,0.5-0.6c0.1-0.1,0.2-0.2,0.3-0.3c0.1-0.1,0.3-0.2,0.4-0.4c0.1-0.1,0.2-0.2,0.3-0.2
	c0.2-0.2,0.4-0.3,0.7-0.5c0.1-0.1,0.2-0.1,0.3-0.2c0.2-0.1,0.4-0.2,0.6-0.3c0.1-0.1,0.2-0.1,0.3-0.2c0.3-0.1,0.5-0.3,0.8-0.4
	c0.1,0,0.1,0,0.2-0.1c0.2-0.1,0.5-0.2,0.7-0.3c0.1,0,0.2-0.1,0.3-0.1c0.3-0.1,0.6-0.2,0.9-0.2c0,0,0.1,0,0.1,0
	c0.3-0.1,0.6-0.1,0.9-0.1c0.1,0,0.2,0,0.3,0c0.3,0,0.7-0.1,1-0.1c0.3,0,0.7,0,1,0.1c0.1,0,0.2,0,0.3,0c0.3,0,0.6,0.1,0.9,0.1
	c0,0,0.1,0,0.1,0c0.3,0.1,0.6,0.1,0.9,0.2c0.1,0,0.2,0.1,0.3,0.1c0.2,0.1,0.5,0.2,0.7,0.3c0.1,0,0.1,0,0.2,0.1
	c0.3,0.1,0.5,0.2,0.8,0.4c0.1,0,0.2,0.1,0.3,0.1c0.2,0.1,0.4,0.2,0.6,0.3c0.1,0.1,0.2,0.1,0.2,0.2c0.2,0.2,0.5,0.3,0.7,0.5
	c0.1,0.1,0.2,0.2,0.3,0.2c0.1,0.1,0.3,0.2,0.4,0.4c0.1,0.1,0.2,0.2,0.3,0.3c0.2,0.2,0.4,0.4,0.5,0.6c0.1,0.1,0.2,0.2,0.3,0.3
	c0.1,0.1,0.2,0.3,0.3,0.4c0.1,0.1,0.2,0.2,0.2,0.4c1.1,1.7,1.8,3.8,1.8,6c0,6-4.9,10.9-10.9,10.9c-6,0-10.9-4.9-10.9-10.9
	C-390.1,278.1-389.6,276.3-388.7,274.7z M-355.1,296.9c0,4.3-3.5,7.7-7.7,7.7h-32.8c-4.3,0-7.7-3.4-7.7-7.7v-22.2h7.4
	c-0.5,1.7-0.8,3.5-0.8,5.3c0,9.7,7.8,17.5,17.5,17.5c9.7,0,17.5-7.8,17.5-17.5c0-1.9-0.3-3.6-0.8-5.3h7.4V296.9z M-355.1,261.6
	c0,0.5-0.4,0.9-0.9,0.9h-4.8c-0.5,0-0.9-0.4-0.9-0.9v-4.8c0-0.5,0.4-0.9,0.9-0.9h4.8c0.5,0,0.9,0.4,0.9,0.9V261.6z"/>
</svg>
