<?xml version="1.0" encoding="utf-8"?>
<!-- Generator: Adobe Illustrator 19.0.0, SVG Export Plug-In . SVG Version: 6.00 Build 0)  -->
<svg version="1.1" id="Warstwa_1" xmlns="http://www.w3.org/2000/svg" xmlns:xlink="http://www.w3.org/1999/xlink" x="0px" y="0px"
	 viewBox="-277 228 112 106" style="enable-background:new -277 228 112 106;" xml:space="preserve">
<style type="text/css">
	.st0{fill:none;stroke:#ED9842;stroke-width:3;stroke-miterlimit:10;}
</style>
<g id="XMLID_629_">
	<path id="XMLID_633_" class="st0" d="M-183.3,236.7h-70.4c-4.5,0-8.1,3.7-8.1,8.1v70.4c0,4.5,3.7,8.1,8.1,8.1h70.4
		c4.5,0,8.1-3.7,8.1-8.1v-70.4C-175.2,240.4-178.9,236.7-183.3,236.7z M-193.1,246.6h8.1v6.7h-8.1V246.6z M-252.1,246.6h32.4v6.7
		h-32.4V246.6z M-184.3,312.7h-68.6V262h68.6V312.7z"/>
	<polygon id="XMLID_623_" class="st0" points="-229.8,293.3 -242.6,285.6 -229.8,278.1 -229.8,270.2 -248.1,282.3 -248.1,289 
		-229.8,301.2 	"/>
	<polygon id="XMLID_622_" class="st0" points="-189,282.3 -207.3,270.2 -207.3,278.1 -194.5,285.6 -207.3,293.3 -207.3,301.2 
		-189,289 	"/>
	<polygon id="XMLID_618_" class="st0" points="-211.3,266.4 -216.6,266.4 -225.8,304.9 -220.6,304.9 	"/>
</g>
</svg>
