<?xml version="1.0" encoding="utf-8"?>
<!-- Generator: Adobe Illustrator 19.0.0, SVG Export Plug-In . SVG Version: 6.00 Build 0)  -->
<svg version="1.1" id="Warstwa_1" xmlns="http://www.w3.org/2000/svg" xmlns:xlink="http://www.w3.org/1999/xlink" x="0px" y="0px"
	 viewBox="-286 232 135 108" style="enable-background:new -286 232 135 108;" xml:space="preserve">
<style type="text/css">
	.st0{fill:#ED9842;}
</style>
<g id="XMLID_572_">
	<path id="XMLID_580_" class="st0" d="M-175.4,260.5c0.3,0,0.7-0.1,0.9-0.3l10.6-6.1c0.9-0.6,1.2-1.7,0.7-2.5
		c-0.6-0.9-1.7-1.2-2.5-0.7l-10.6,6c-0.9,0.6-1.2,1.7-0.7,2.5C-176.7,260.1-176,260.5-175.4,260.5z"/>
	<path id="XMLID_579_" class="st0" d="M-163.9,290.1l-10.5-6c-0.9-0.5-2.1-0.2-2.5,0.7c-0.5,0.8-0.2,2.1,0.7,2.5l10.6,6
		c0.3,0.2,0.7,0.3,0.9,0.3c0.7,0,1.3-0.4,1.6-0.9C-162.7,291.7-163,290.6-163.9,290.1z"/>
	<path id="XMLID_578_" class="st0" d="M-164,270.2L-164,270.2l-12.2,0.1c-1,0-1.9,0.8-1.9,1.9s0.8,1.9,1.9,1.9l0,0l12.2-0.1
		c1,0,1.9-0.8,1.9-1.9C-162.1,270.9-163,270.2-164,270.2z"/>
	<path id="XMLID_573_" class="st0" d="M-188.2,266.1h-3.9v-26.7c0-0.8-0.5-1.4-1.1-1.7c-0.7-0.3-1.5-0.2-2,0.3
		c-12.1,10.6-27.5,16.4-43.5,16.4h-18.9c-9.8,0-17.8,8-17.8,17.8v1.3c0,9.8,8,17.8,17.8,17.8c0.2,0,0.4,0,0.6-0.1h6.6V313
		c0,2.4,0.9,4.5,2.5,6.2c1.6,1.6,3.9,2.5,6.1,2.5c0,0,0,0,0.1,0c4.8,0,8.8-4,8.8-8.9V297c0-1-0.8-1.9-1.9-1.9s-1.9,0.8-1.9,1.9v15.9
		c0,2.8-2.3,5.1-5,5.1c-1.3,0-2.5-0.5-3.5-1.4c-0.9-0.9-1.5-2.2-1.5-3.6v-21.7h8.4c15.8,0,31,5.6,43,15.7c0.4,0.3,0.8,0.5,1.2,0.5
		c0.3,0,0.6-0.1,0.8-0.2c0.7-0.3,1.1-0.9,1.1-1.7v-26.8h4c3.5,0,6.3-2.8,6.3-6.3c0-1.7-0.7-3.3-1.9-4.4
		C-184.9,266.8-186.5,266.1-188.2,266.1z M-271.6,273.6v-1.3c0-7.1,5.3-13,12.2-14v29.2C-266.3,286.6-271.6,280.6-271.6,273.6z
		 M-238.2,287.5h-17.5v-29.3h17c15.6,0,30.7-5.2,42.8-14.7V268l0,0v8.9l0,0v24.7C-208,292.5-222.9,287.5-238.2,287.5z M-188.2,275
		h-3.9v-5.1h4c0.7,0,1.3,0.3,1.8,0.8c0.5,0.5,0.8,1.1,0.8,1.8C-185.6,273.9-186.8,275-188.2,275z"/>
</g>
</svg>
