<?xml version="1.0" encoding="utf-8"?>
<!-- Generator: Adobe Illustrator 19.0.0, SVG Export Plug-In . SVG Version: 6.00 Build 0)  -->
<svg version="1.1" id="Warstwa_1" xmlns="http://www.w3.org/2000/svg" xmlns:xlink="http://www.w3.org/1999/xlink" x="0px" y="0px"
	 viewBox="-349 152 260 257" style="enable-background:new -349 152 260 257;" xml:space="preserve">
<style type="text/css">
	.st0{fill:none;}
	.st1{fill:#ED9842;}
</style>
<g id="XMLID_173_">
	<path id="XMLID_163_" class="st0" d="M-288.6,247.1c3.3,3.5,7.1,5.3,11.9,6.2v-57.8h-28.5C-304.2,210-300.9,235.6-288.6,247.1z"/>
	<polygon id="XMLID_158_" class="st0" points="-204.1,222.8 -180.9,208.7 -209.8,208.7 -210.3,208.7 -210.3,208.3 -219.3,184.9 
		-228.3,208.3 -228.3,208.7 -228.8,208.7 -257.7,208.7 -234.5,222.8 -234,222.8 -234,223.3 -243,246.6 -219.3,232.1 -218.8,232.1 
		-195.6,246.6 -204.6,223.3 -204.6,222.8 	"/>
	<path id="XMLID_152_" class="st0" d="M-163.3,253.3c4.3-0.9,8.1-2.6,11.9-6.2c11.9-11.5,15.7-37,16.1-51.6h-28L-163.3,253.3
		L-163.3,253.3z"/>
	<path id="XMLID_175_" class="st1" d="M-119.7,182.2c0-3.5-3.3-6.2-7.1-6.2h-35.1v-13.7c0-2.2-1.4-3.5-3.8-3.5H-272
		c-1.9,0-3.8,1.3-3.8,3.5v13.7h-35.1c-3.8,0-7.1,2.6-7.1,6.2c0,2.2-0.5,47.2,20.9,67.5c6.2,6.2,13.8,9.3,21.8,10.1
		c3.3,20.7,20.4,37.9,42.7,42.8v8.8h-1c-2.4-0.4-5.2-0.9-7.6-1.3c-1.4,0.9-1.9,2.6-1.9,4c0,3.5,2.8,6.2,7.1,6.2h2.4v34.4h-2.4
		c-4.3,0-7.1,2.6-7.1,5.7c0,0.9,0,1.3,0,2.2h46c0.5-0.9,0.5-1.3,0.5-2.2c0-3.1-3.3-5.7-7.1-5.7h-2.9v-34.4h2.9
		c3.8,0,7.1-2.6,7.1-6.2c0-1.3-1-3.1-2.4-4c-1.9,0.4-3.8,0.9-5.7,0.9v-8.4c21.8-4.8,38.9-22,42.2-42.8c8.5-0.9,15.7-4,21.8-10.1
		C-119.2,229.4-119.7,184.4-119.7,182.2z M-276.7,253.3c-4.7-0.9-8.5-2.6-11.9-6.2c-12.3-11.5-15.7-37-16.6-51.6h28.5L-276.7,253.3z
		 M-195.6,246.6l-23.2-14.6h-0.5l-23.7,14.6l9-23.4v-0.4h-0.5l-23.2-14.1h28.9h0.5v-0.4l9-23.4l9,23.4v0.4h0.5h28.9l-23.2,14.1h-0.5
		v0.4L-195.6,246.6z M-151.5,247.1c-3.8,3.5-7.6,5.3-11.9,6.2v-57.8h28C-135.8,210-139.6,235.6-151.5,247.1z"/>
	<path id="XMLID_118_" class="st1" d="M-172.8,374.6h-7.1c-1.4,0-2.8-0.9-2.8-2.2v-3.5c0-1.3-1-2.2-2.4-2.2h-18.5h-32.3h-19
		c-1.4,0-2.4,0.9-2.4,2.2v3.5c0,1.3-1.4,2.2-2.9,2.2h-7.1c-1.4,0-2.4,0.9-2.4,2.2v22.1c0,0.9,0.9,1.8,2.4,1.8h94.4
		c1.4,0,2.4-0.9,2.4-1.8v-22.1C-170.5,375.5-171.4,374.6-172.8,374.6z"/>
</g>
</svg>
