<?xml version="1.0" encoding="utf-8"?>
<!-- Generator: Adobe Illustrator 19.0.0, SVG Export Plug-In . SVG Version: 6.00 Build 0)  -->
<svg version="1.1" id="Warstwa_1" xmlns="http://www.w3.org/2000/svg" xmlns:xlink="http://www.w3.org/1999/xlink" x="0px" y="0px"
	 viewBox="-280 224 120 116" style="enable-background:new -280 224 120 116;" xml:space="preserve">
<style type="text/css">
	.st0{fill:#ED9842;}
</style>
<path id="XMLID_641_" class="st0" d="M-182.2,327.2h-73.1c-0.8,0-1.5-0.7-1.5-1.5v-46.4h-7.6c-0.6,0-1.2-0.4-1.4-1
	c-0.2-0.6-0.1-1.2,0.4-1.7l45.7-43.8c0.6-0.6,1.5-0.6,2.1,0l14.6,14v-8.2c0-0.8,0.7-1.5,1.5-1.5h11.6c0.8,0,1.5,0.7,1.5,1.5v22.3
	l16.5,15.8c0.4,0.4,0.6,1.1,0.4,1.7s-0.8,1-1.4,1h-7.6v46.4C-180.7,326.5-181.4,327.2-182.2,327.2z M-253.8,324.2h70v-44.9h-70
	V324.2z M-260.6,276.2h83.8l-41.9-40.2L-260.6,276.2z M-200.1,249.8l8.5,8.2v-17.8h-8.5V249.8z M-203.2,315.2h-31.1
	c-0.8,0-1.5-0.7-1.5-1.5v-23.5c0-0.8,0.7-1.5,1.5-1.5h31.1c0.8,0,1.5,0.7,1.5,1.5v23.5C-201.7,314.5-202.3,315.2-203.2,315.2z
	 M-217.2,312.2h12.5v-8.9h-12.5V312.2z M-232.8,312.2h12.5v-8.9h-12.5V312.2z M-217.2,300.2h12.5v-8.5h-12.5V300.2z M-232.8,300.2
	h12.5v-8.5h-12.5V300.2z M-204.8,268h-26c-0.8,0-1.5-0.7-1.5-1.5c0-8,6.5-14.5,14.5-14.5c8,0,14.5,6.5,14.5,14.5
	C-203.3,267.3-204,268-204.8,268z M-229.2,264.9h22.7c-0.7-5.6-5.6-9.9-11.4-9.9C-223.6,255-228.4,259.3-229.2,264.9z"/>
</svg>
