<?xml version="1.0" encoding="utf-8"?>
<!-- Generator: Adobe Illustrator 19.0.0, SVG Export Plug-In . SVG Version: 6.00 Build 0)  -->
<svg version="1.1" id="Warstwa_1" xmlns="http://www.w3.org/2000/svg" xmlns:xlink="http://www.w3.org/1999/xlink" x="0px" y="0px"
	 viewBox="-279 213 117 126" style="enable-background:new -279 213 117 126;" xml:space="preserve">
<style type="text/css">
	.st0{fill:none;stroke:#ED9842;stroke-width:3;stroke-miterlimit:10;}
</style>
<g id="XMLID_664_">
	<path id="XMLID_672_" class="st0" d="M-218.9,280.3c0,4.9-10,8.9-22.4,8.9c-12.4,0-22.4-4-22.4-8.9c0-4.9,10-8.9,22.4-8.9
		C-228.9,271.3-218.9,275.4-218.9,280.3z M-241.3,293.7c-12.4,0-22.4-4-22.4-8.9v8.9c0,4.9,10,8.9,22.4,8.9c12.4,0,22.4-4,22.4-8.9
		v-8.9C-218.9,289.7-228.9,293.7-241.3,293.7z M-241.3,307.1c-12.4,0-22.4-4-22.4-8.9v8.9c0,4.9,10,8.9,22.4,8.9
		c12.4,0,22.4-4,22.4-8.9v-8.9C-218.9,303.1-228.9,307.1-241.3,307.1z M-241.3,320.5c-12.4,0-22.4-4-22.4-8.9v8.9
		c0,4.9,10,8.9,22.4,8.9c12.4,0,22.4-4,22.4-8.9v-8.9C-218.9,316.5-228.9,320.5-241.3,320.5z"/>
	<g id="XMLID_665_">
		<path id="XMLID_666_" class="st0" d="M-222.6,242.1c0-3.1,1-5.8,3.1-8s4.8-3.3,8.2-3.3c3.4,0,6.1,1,8.2,3.3s3.1,4.9,3.1,8v2.8
			c0,3.1-1,5.8-3.1,8c-2.1,2.1-4.8,3.3-8.2,3.3c-3.4,0-6.3-1-8.3-3.3c-2.1-2.1-3.1-4.8-3.1-8v-2.8H-222.6z M-217.1,245.1
			c0,1.8,0.4,3.4,1.5,4.8c1,1.3,2.5,1.9,4.3,1.9s3.3-0.6,4.3-1.9c1-1.3,1.5-2.8,1.5-4.8v-2.8c0-1.8-0.4-3.4-1.5-4.8
			c-1-1.3-2.4-1.9-4.3-1.9s-3.3,0.6-4.3,1.9c-1,1.3-1.5,2.8-1.5,4.8V245.1z M-209.2,282.4l-4-2.5l26.7-42.8l4.2,2.5L-209.2,282.4z
			 M-196.1,273c0-3.1,1-5.8,3.1-8c2.1-2.2,4.8-3.3,8.2-3.3s6.1,1,8.2,3.3s3.1,4.9,3.1,8v3c0,3.3-1,6-3.1,8c-2.1,2.1-4.8,3.3-8.2,3.3
			s-6.3-1-8.3-3.3c-2.1-2.1-3.1-4.8-3.1-8v-3H-196.1z M-190.6,276c0,1.9,0.4,3.4,1.5,4.8s2.5,1.9,4.3,1.9c1.8,0,3.3-0.6,4.3-1.9
			c1-1.3,1.5-2.8,1.5-4.8v-3c0-1.8-0.4-3.4-1.5-4.8c-1-1.3-2.5-1.9-4.3-1.9s-3.3,0.6-4.3,1.9c-1,1.3-1.5,2.8-1.5,4.8V276z"/>
	</g>
</g>
</svg>
