<?xml version="1.0" encoding="utf-8"?>
<!-- Generator: Adobe Illustrator 19.0.0, SVG Export Plug-In . SVG Version: 6.00 Build 0)  -->
<svg version="1.1" id="Warstwa_1" xmlns="http://www.w3.org/2000/svg" xmlns:xlink="http://www.w3.org/1999/xlink" x="0px" y="0px"
	 viewBox="-288 223 136 120" style="enable-background:new -288 223 136 120;" xml:space="preserve">
<style type="text/css">
	.st0{fill:none;stroke:#ED9842;stroke-width:3;stroke-miterlimit:10;}
</style>
<path id="XMLID_569_" class="st0" d="M-217.6,237.6c3.4,0,3.1,2.8,3.1,6.2l0.2,6.2h35.7v6.2h-4.1l16.5,39c0,6-9.9,10.9-20.3,10.9
	c-10.3,0-20.3-4.9-20.3-10.9l16.5-39H-214l1.9,56.3c12,0.9,21.1,4.7,21.1,9.2h-53c0-4.5,9.1-8.3,21.1-9.2l1.9-56.3h-27l16.5,39
	c0,6-9.9,10.9-20.3,10.9c-10.3,0-20.3-4.9-20.3-10.9l16.5-39h-4.1V250h38.8l0.2-6.2C-220.7,240.3-221,237.6-217.6,237.6z
	 M-173.4,295.3l-11.4-28.3v28.3H-173.4z M-199.4,295.3h11.4V267L-199.4,295.3z M-238.9,295.3l-11.4-28.3v28.3H-238.9z M-264.9,295.3
	h11.4V267L-264.9,295.3z"/>
</svg>
