<?xml version="1.0" encoding="utf-8"?>
<!-- Generator: Adobe Illustrator 19.0.0, SVG Export Plug-In . SVG Version: 6.00 Build 0)  -->
<svg version="1.1" id="Warstwa_1" xmlns="http://www.w3.org/2000/svg" xmlns:xlink="http://www.w3.org/1999/xlink" x="0px" y="0px"
	 viewBox="-411 221 136 120" style="enable-background:new -411 221 136 120;" xml:space="preserve">
<style type="text/css">
	.st0{fill:none;stroke:#ED9842;stroke-width:3;stroke-miterlimit:10;}
</style>
<path id="XMLID_619_" class="st0" d="M-301.9,259.6h-92.3c-1.9,0-3.4,1.5-3.4,3.4v46.1c0,1.9,1.5,3.4,3.4,3.4h92.3
	c1.9,0,3.4-1.5,3.4-3.4V263C-298.6,261.1-300.1,259.6-301.9,259.6z M-390.8,305.7v-4.8h4.6c1.9,0,3.4-1.5,3.4-3.4
	c0-1.9-1.5-3.4-3.4-3.4h-4.6v-4.8h1.8c1.9,0,3.4-1.5,3.4-3.4s-1.5-3.4-3.4-3.4h-1.8v-4.8h4.6c1.9,0,3.4-1.5,3.4-3.4
	s-1.5-3.4-3.4-3.4h-4.6v-4.8h30c-6.5,4.2-10.7,11.5-10.7,19.7c0,8.3,4.3,15.5,10.7,19.7L-390.8,305.7L-390.8,305.7z M-348.1,302.8
	c-9.3,0-16.8-7.5-16.8-16.8c0-9.3,7.5-16.8,16.8-16.8c9.3,0,16.8,7.5,16.8,16.8C-331.3,295.3-338.8,302.8-348.1,302.8z
	 M-305.3,271.2h-4.6c-1.9,0-3.4,1.5-3.4,3.4c0,1.9,1.5,3.4,3.4,3.4h4.6v4.8h-1.8c-1.9,0-3.4,1.5-3.4,3.4c0,1.9,1.5,3.4,3.4,3.4h1.8
	v4.8h-4.6c-1.9,0-3.4,1.5-3.4,3.4s1.5,3.4,3.4,3.4h4.6v4.8h-30c6.5-4.2,10.7-11.5,10.7-19.7s-4.3-15.5-10.7-19.7h30V271.2z
	 M-346.9,283.8c-1.5-0.6-2.1-1.1-2.3-1.3c-0.3-0.3-0.5-0.8-0.5-1.4c0-0.7,0.2-1.2,0.5-1.5c0.3-0.3,0.8-0.5,1.5-0.5
	c0.7,0,1.2,0.2,1.6,0.6c0.4,0.5,0.6,1.2,0.6,2.1c0,0.4,0.3,0.7,0.7,0.7h4.3c0.3,0,0.5-0.2,0.7-0.5c0-0.1,0-0.2,0-0.2
	c0-2-0.5-3.7-1.7-5c-1-1.1-2.4-1.9-4.1-2.2v-2.7c0-0.4-0.3-0.7-0.7-0.7h-2.4c-0.4,0-0.7,0.3-0.7,0.7v2.6c-1.7,0.3-3.2,1-4.2,2
	c-1.2,1.2-1.8,2.8-1.8,4.6c0,2,0.6,3.6,1.8,4.8c1.2,1.1,2.9,2,5.2,2.8c1.4,0.5,2,1,2.3,1.3c0.3,0.4,0.5,0.9,0.5,1.5
	c0,0.6-0.2,1.1-0.5,1.5c-0.4,0.4-0.9,0.5-1.7,0.5c-0.8,0-1.5-0.2-2-0.7c-0.5-0.4-0.7-1.2-0.7-2.2c0-0.4-0.3-0.7-0.7-0.7h-4.3
	c-0.3,0-0.5,0.2-0.6,0.5c0,0.1-0.1,0.2-0.1,0.3c0,2.3,0.6,4.1,2,5.4c1.2,1.1,2.7,1.8,4.5,2v2.4c0,0.4,0.3,0.7,0.7,0.7h2.4
	c0.4,0,0.7-0.3,0.7-0.7v-2.4c1.7-0.3,3.2-0.9,4.2-2c1.2-1.2,1.8-2.7,1.8-4.7c0-2-0.6-3.6-1.9-4.8
	C-342.9,285.4-344.7,284.5-346.9,283.8z M-291.3,249h-92.3c-1.9,0-3.4,1.5-3.4,3.4s1.5,3.4,3.4,3.4h88.9v42.8c0,1.9,1.5,3.4,3.4,3.4
	s3.4-1.5,3.4-3.4v-46.1C-288,250.5-289.5,249-291.3,249z"/>
</svg>
