<?xml version="1.0" encoding="utf-8"?>
<!-- Generator: Adobe Illustrator 19.0.0, SVG Export Plug-In . SVG Version: 6.00 Build 0)  -->
<svg version="1.1" id="Warstwa_1" xmlns="http://www.w3.org/2000/svg" xmlns:xlink="http://www.w3.org/1999/xlink" x="0px" y="0px"
	 viewBox="-295 105 153 346" style="enable-background:new -295 105 153 346;" xml:space="preserve">
<style type="text/css">
	.st0{fill:#ED9842;}
</style>
<path id="XMLID_5_" class="st0" d="M-276,376.8l25.5,1.9l-0.5,7.2c-0.5,7-6.7,12.3-13.7,11.8c-7-0.5-12.3-6.6-11.8-13.7L-276,376.8z
	 M-242.2,338.5c1-13.8-5.7-25.6-14.9-26.3c-6.3-0.5-12.1,4.3-15.6,11.7c0,0,0,0,0,0c0,0,0,0.1,0,0.1c0,0.1-0.1,0.2-0.1,0.3
	c-8.1,16-1.4,33.8-2.2,44.7l1.9,0.1l23.4,1.7l0.6-8.1c0.3-3.5,1.3-6.8,2.3-9C-244.4,349.7-242.7,344.4-242.2,338.5z M-205.4,427.2
	l-23.7-9.7l-2.7,6.7c-2.7,6.5,0.5,14,7,16.7c6.5,2.7,14-0.5,16.7-7L-205.4,427.2z M-221.1,393.8c-0.2,2.4-0.6,5.7-2,9l-3.1,7.6
	l21.7,8.9l1.7,0.7c4.1-10.1,18-23.1,17.9-41c0-0.1,0-0.2,0-0.3c0,0,0-0.1,0-0.1c0,0,0,0,0,0c0.2-8.2-2.9-15-8.7-17.4
	c-8.6-3.5-19.8,4.1-25.1,16.9C-220.8,383.4-221.6,388.9-221.1,393.8z"/>
<path id="XMLID_10_" class="st0" d="M-249.2,180.9l25.5,1.9l-0.5,7.2c-0.5,7-6.7,12.3-13.7,11.8c-7-0.5-12.3-6.6-11.8-13.7
	L-249.2,180.9z M-215.5,142.6c1-13.8-5.7-25.6-14.9-26.3c-6.3-0.5-12.1,4.3-15.6,11.7c0,0,0,0,0,0c0,0,0,0.1,0,0.1
	c0,0.1-0.1,0.2-0.1,0.3c-8.1,16-1.4,33.8-2.2,44.7l1.9,0.1l23.4,1.7l0.6-8.1c0.3-3.5,1.3-6.8,2.3-9
	C-217.7,153.8-215.9,148.5-215.5,142.6z M-178.7,271.7l-23.7-9.7l-2.7,6.7c-2.7,6.5,0.5,14,7,16.7c6.5,2.7,14-0.5,16.7-7
	L-178.7,271.7z M-194.3,238.2c-0.2,2.4-0.6,5.7-2,9l-3.1,7.6l21.7,8.9l1.7,0.7c4.1-10.1,18-23.1,17.9-41c0-0.1,0-0.2,0-0.3
	c0,0,0-0.1,0-0.1c0,0,0,0,0,0c0.2-8.2-2.9-15-8.7-17.4c-8.6-3.5-19.8,4.1-25.1,16.9C-194.1,227.8-194.8,233.4-194.3,238.2z"/>
</svg>
