<?xml version="1.0" encoding="utf-8"?>
<!-- Generator: Adobe Illustrator 19.0.0, SVG Export Plug-In . SVG Version: 6.00 Build 0)  -->
<svg version="1.1" id="Warstwa_1" xmlns="http://www.w3.org/2000/svg" xmlns:xlink="http://www.w3.org/1999/xlink" x="0px" y="0px"
	 viewBox="-812 218.9 856 460" style="enable-background:new -812 218.9 856 460;" xml:space="preserve">
<style type="text/css">
	.st0{fill:#ED9842;}
	.st1{font-family:'Montserrat-Regular';}
	.st2{font-size:12.4335px;}
	.st3{font-family:'Montserrat-Light';}
</style>
<g>
	<g id="XMLID_611_">
		<circle id="XMLID_680_" cx="-386.6" cy="284.1" r="44.4"/>
		<path id="XMLID_612_" d="M-354.4,342.2h-64.4c-25.2,0-45.6,20.4-45.6,45.6v92.7c0,21.8,15.5,40.5,36.9,44.7v100.9
			c0,18.6,15.1,33.6,33.6,33.6l0,0h14.1c18.6,0,33.6-15.1,33.6-33.6l0,0l0,0V525.1c21.8-3.7,37.8-22.6,37.9-44.7v-92.7
			c-0.1-25.2-20.6-45.5-45.8-45.5C-354.2,342.2-354.3,342.2-354.4,342.2z"/>
	</g>
	<g id="XMLID_31_">
		<g id="XMLID_601_">
			<g>
				<path class="st0" d="M-703,260.3c27.7,0,55.3,0,83,0c44.1,0,88.2,0,132.3,0c10.1,0,20.2,0,30.3,0c1.9,0,1.9-3,0-3
					c-27.7,0-55.3,0-83,0c-44.1,0-88.2,0-132.3,0c-10.1,0-20.2,0-30.3,0C-705,257.3-705,260.3-703,260.3L-703,260.3z"/>
			</g>
		</g>
		<g id="XMLID_572_">
			<g>
				<path class="st0" d="M-457.9,260.3c13.8,4.4,27.7,8.9,41.5,13.3c1.8,0.6,2.6-2.3,0.8-2.9c-13.8-4.4-27.7-8.9-41.5-13.3
					C-458.9,256.9-459.7,259.8-457.9,260.3L-457.9,260.3z"/>
			</g>
		</g>
		<g id="XMLID_559_">
			<g>
				<path class="st0" d="M-414.3,278.3c7.7,0,7.7-11.9,0-11.9C-422,266.4-422,278.3-414.3,278.3L-414.3,278.3z"/>
			</g>
		</g>
		<text id="XMLID_550_" transform="matrix(1 0 0 1 -703.0302 254.1488)"><tspan x="0" y="0" class="st1 st2">Student </tspan><tspan x="0" y="19.1" class="st3 st2">najczęściej kierunku ekonomicznego,  </tspan><tspan x="0" y="34" class="st3 st2">absolwent studiów licencjackich lub  </tspan><tspan x="0" y="48.9" class="st3 st2">w trakcie magisterskich, doktoranckich</tspan></text>
	</g>
	<g id="XMLID_32_">
		<g id="XMLID_589_">
			<g>
				<path class="st0" d="M-795,428.1c33.7,0,67.4,0,101.2,0c53.3,0,106.6,0,159.9,0c12.2,0,24.4,0,36.7,0c1.9,0,1.9-3,0-3
					c-33.7,0-67.4,0-101.2,0c-53.3,0-106.6,0-159.9,0c-12.2,0-24.4,0-36.7,0C-797,425.1-797,428.1-795,428.1L-795,428.1z"/>
			</g>
		</g>
		<g id="XMLID_569_">
			<g>
				<path class="st0" d="M-416.4,383.7c-23.8,12.3-47.6,24.5-71.4,36.8c-3.4,1.7-6.8,3.5-10.2,5.2c-1.7,0.9-0.2,3.5,1.5,2.6
					c23.8-12.3,47.6-24.5,71.4-36.8c3.4-1.7,6.8-3.5,10.2-5.2C-413.2,385.4-414.7,382.8-416.4,383.7L-416.4,383.7z"/>
			</g>
		</g>
		<g id="XMLID_558_">
			<g>
				<path class="st0" d="M-415.8,391.3c7.7,0,7.7-11.9,0-11.9C-423.5,379.4-423.5,391.3-415.8,391.3L-415.8,391.3z"/>
			</g>
		</g>
		<text id="XMLID_548_" transform="matrix(1 0 0 1 -794.8999 421.5501)"><tspan x="0" y="0" class="st1 st2">Zainteresowania </tspan><tspan x="0" y="19.1" class="st3 st2">bardzo sprecyzowane, wpadające w ramy jednej  </tspan><tspan x="0" y="34" class="st3 st2">z dziedzin konkursu, np. marketing, podatki, PR,  </tspan><tspan x="0" y="48.9" class="st3 st2">logistyka, IT. Samodzielnie kształci się w tym  </tspan><tspan x="0" y="63.8" class="st3 st2">zakresie</tspan></text>
	</g>
	<g id="XMLID_34_">
		<g id="XMLID_557_">
			<g>
				<path class="st0" d="M-414.3,577.5c7.7,0,7.7-11.9,0-11.9C-422,565.6-422,577.5-414.3,577.5L-414.3,577.5z"/>
			</g>
		</g>
		<g id="XMLID_546_">
			<g>
				<path class="st0" d="M-694.8,558.4c23.1,0,46.1,0,69.2,0c36.6,0,73.1,0,109.7,0c8.4,0,16.8,0,25.3,0c1.9,0,1.9-3,0-3
					c-23.1,0-46.1,0-69.2,0c-36.6,0-73.1,0-109.7,0c-8.4,0-16.8,0-25.3,0C-696.7,555.4-696.7,558.4-694.8,558.4L-694.8,558.4z"/>
			</g>
		</g>
		<g id="XMLID_545_">
			<g>
				<path class="st0" d="M-413.6,570.5c-25.1-4.9-50.2-9.8-75.2-14.6c-1.9-0.4-2.7,2.5-0.8,2.9c25.1,4.9,50.2,9.8,75.2,14.6
					C-412.5,573.7-411.7,570.9-413.6,570.5L-413.6,570.5z"/>
			</g>
		</g>
		<text id="XMLID_543_" transform="matrix(1 0 0 1 -694.7778 550.7875)"><tspan x="0" y="0" class="st1 st2">Czas wolny</tspan><tspan x="0" y="19.1" class="st3 st2">czyta artykuły</tspan><tspan x="0" y="38.1" class="st3 st2">przegląda Facebooka</tspan><tspan x="0" y="57.2" class="st3 st2">ogląda seriale</tspan><tspan x="0" y="76.3" class="st3 st2">uprawia sport</tspan></text>
	</g>
	<g id="XMLID_30_">
		<g id="XMLID_598_">
			<g>
				<path class="st0" d="M-284.5,331.3c35.4,0,70.9,0,106.3,0c56.4,0,112.8,0,169.2,0c12.8,0,25.6,0,38.5,0c1.9,0,1.9-3,0-3
					c-35.4,0-70.9,0-106.3,0c-56.4,0-112.8,0-169.2,0c-12.8,0-25.6,0-38.5,0C-286.4,328.3-286.4,331.3-284.5,331.3L-284.5,331.3z"/>
			</g>
		</g>
		<g id="XMLID_570_">
			<g>
				<path class="st0" d="M-368,288.4c23.8,12.3,47.6,24.5,71.4,36.8c3.4,1.7,6.8,3.5,10.2,5.2c1.7,0.9,3.2-1.7,1.5-2.6
					c-23.8-12.3-47.6-24.5-71.4-36.8c-3.4-1.7-6.8-3.5-10.2-5.2C-368.2,284.9-369.8,287.5-368,288.4L-368,288.4z"/>
			</g>
		</g>
		<g id="XMLID_556_">
			<g>
				<path class="st0" d="M-367.7,293.5c7.7,0,7.7-11.9,0-11.9C-375.4,281.6-375.4,293.5-367.7,293.5L-367.7,293.5z"/>
			</g>
		</g>
		<text id="XMLID_536_" transform="matrix(1 0 0 1 -3.0175 325.0111)"><tspan x="0" y="0" class="st1 st2">Profil</tspan><tspan x="-21.9" y="19.1" class="st3 st2">22-27 lat</tspan><tspan x="-251.6" y="38.1" class="st3 st2">mieszkaniec dużego miasta bądź aglomeracji  </tspan><tspan x="-189.4" y="53" class="st3 st2">jednego z największych miast Polski</tspan><tspan x="-201.8" y="72.1" class="st3 st2">pracuje dorywczo, ale szuka stażu lub  </tspan><tspan x="-204.4" y="87" class="st3 st2">zatrudnienia w interesującej go branży</tspan></text>
	</g>
	<g id="XMLID_33_">
		<g id="XMLID_588_">
			<g>
				<path class="st0" d="M-295.9,470.6c25.7,0,51.4,0,77.1,0c40.9,0,81.9,0,122.8,0c9.4,0,18.7,0,28.1,0c1.9,0,1.9-3,0-3
					c-25.7,0-51.4,0-77.1,0c-40.9,0-81.9,0-122.8,0c-9.4,0-18.7,0-28.1,0C-297.9,467.6-297.9,470.6-295.9,470.6L-295.9,470.6z"/>
			</g>
		</g>
		<g id="XMLID_571_">
			<g>
				<path class="st0" d="M-337,484c13.8-4.4,27.7-8.9,41.5-13.3c1.8-0.6,1-3.5-0.8-2.9c-13.8,4.4-27.7,8.9-41.5,13.3
					C-339.6,481.7-338.8,484.6-337,484L-337,484z"/>
			</g>
		</g>
		<g id="XMLID_555_">
			<g>
				<path class="st0" d="M-337.7,488.7c7.7,0,7.7-11.9,0-11.9C-345.4,476.8-345.4,488.7-337.7,488.7L-337.7,488.7z"/>
			</g>
		</g>
		<text id="XMLID_523_" transform="matrix(1 0 0 1 -167.8984 464.2601)"><tspan x="0" y="0" class="st1 st2">Charakterystyka</tspan><tspan x="48.8" y="19.1" class="st3 st2">ambitny</tspan><tspan x="26.9" y="38.1" class="st3 st2">inteligentny</tspan><tspan x="-35.8" y="57.2" class="st3 st2">stawia na samorozwój</tspan><tspan x="16.7" y="76.3" class="st3 st2">dba o wygląd</tspan><tspan x="-91.9" y="95.3" class="st3 st2">przywiązuje wagę do pieniędzy</tspan><tspan x="-39" y="114.4" class="st3 st2">myśli długoterminowo</tspan></text>
	</g>
	<path id="XMLID_518_" class="st0" d="M-318.1,567h-25.6C-342.1,550.6-319.6,550.8-318.1,567L-318.1,567z M-326.1,624.1h-9.6
		c-1.2,0-2.2-1-2.2-2.2v-13.7c0-1.2,1-2.2,2.2-2.2h9.6c1.2,0,2.2,1,2.2,2.2v13.7C-323.9,623.1-324.9,624.1-326.1,624.1L-326.1,624.1
		z M-381.3,659.8h100.7c6.7,0,12.2-5.5,12.2-12.2V600l-51.8,14.1v10.1c0,1.7-1.4,3.1-3.1,3.1h-15.3c-1.7,0-3.1-1.4-3.1-3.1v-10.1
		l-51.8-14.1v47.6C-393.5,654.3-388,659.8-381.3,659.8L-381.3,659.8z M-268.4,595.4v-16.2c0-6.7-5.5-12.2-12.2-12.2h-29
		c-1.7-26.5-41.8-26.6-42.7,0h-29c-6.7,0-12.2,5.5-12.2,12.2v16.2l51.8,14.1v-3.9c0-1.7,1.4-3.1,3.1-3.1h15.3c1.7,0,3.1,1.4,3.1,3.1
		v3.9L-268.4,595.4z"/>
</g>
</svg>
