<?xml version="1.0" encoding="utf-8"?>
<!-- Generator: Adobe Illustrator 19.0.0, SVG Export Plug-In . SVG Version: 6.00 Build 0)  -->
<svg version="1.1" id="Warstwa_1" xmlns="http://www.w3.org/2000/svg" xmlns:xlink="http://www.w3.org/1999/xlink" x="0px" y="0px"
	 viewBox="28 -92 690 750" style="enable-background:new 28 -92 690 750;" xml:space="preserve">
<style type="text/css">
	.st0{fill:#ED9842;}
	.st1{font-family:'Montserrat-Regular';}
	.st2{font-size:17.4424px;}
	.st3{font-family:'Montserrat-Light';}
</style>
<g id="XMLID_639_">
	<g id="XMLID_645_">
		<circle id="XMLID_647_" cx="537.3" cy="-14.9" r="59.1"/>
		<path id="XMLID_646_" d="M580.2,62.6h-85.8c-33.5,0-60.7,27.2-60.7,60.7v123.4c0,29,20.6,54,49.1,59.6v134.4
			c0,24.7,20.1,44.8,44.8,44.8h0h18.8c24.7,0,44.8-20.1,44.8-44.8l0,0l0,0V306c29.1-5,50.3-30.1,50.5-59.6V123.1
			c-0.1-33.5-27.4-60.6-61-60.5C580.5,62.6,580.4,62.6,580.2,62.6z"/>
	</g>
	<path id="XMLID_640_" class="st0" d="M628.5,361.8h-34.1C596.6,339.9,626.6,340.2,628.5,361.8L628.5,361.8z M617.9,437.8H605
		c-1.6,0-2.9-1.3-2.9-2.9v-18.2c0-1.6,1.3-2.9,2.9-2.9h12.8c1.6,0,2.9,1.3,2.9,2.9v18.2C620.8,436.5,619.5,437.8,617.9,437.8
		L617.9,437.8z M544.4,485.4h134.1c8.9,0,16.2-7.3,16.2-16.2v-63.4l-69,18.8V438c0,2.3-1.9,4.2-4.2,4.2h-20.3
		c-2.3,0-4.2-1.9-4.2-4.2v-13.5l-69-18.8v63.4C528.2,478.1,535.5,485.4,544.4,485.4L544.4,485.4z M694.8,399.7V378
		c0-8.9-7.3-16.2-16.2-16.2h-38.6c-2.2-35.3-55.6-35.4-56.8,0h-38.6c-8.9,0-16.2,7.3-16.2,16.2v21.6l69,18.8v-5.2
		c0-2.3,1.9-4.2,4.2-4.2h20.3c2.3,0,4.2,1.9,4.2,4.2v5.2L694.8,399.7z"/>
</g>
<g id="XMLID_1162_">
	<g id="XMLID_1126_">
		<g>
			<path class="st0" d="M60.2-48.6c13.1,0,26.1,0,39.2,0c31.4,0,62.8,0,94.2,0c38,0,76,0,114,0c32.9,0,65.7,0,98.6,0
				c10.9,0,21.8,0,32.6,0c4.9,0,10.5,0.8,15.4,0c0.2,0,0.5,0,0.7,0c1.9,0,1.9-3,0-3c-13.1,0-26.1,0-39.2,0c-31.4,0-62.8,0-94.2,0
				c-38,0-76,0-114,0c-32.9,0-65.7,0-98.6,0c-10.9,0-21.8,0-32.6,0c-4.9,0-10.5-0.8-15.4,0c-0.2,0-0.5,0-0.7,0
				C58.3-51.6,58.3-48.6,60.2-48.6L60.2-48.6z"/>
		</g>
	</g>
	<g id="XMLID_1122_">
		<g>
			<path class="st0" d="M454.5-48.5c22.2,5.6,44.4,11.1,66.7,16.7c1.9,0.5,2.7-2.4,0.8-2.9c-22.2-5.6-44.4-11.1-66.7-16.7
				C453.4-51.8,452.6-48.9,454.5-48.5L454.5-48.5z"/>
		</g>
	</g>
	<g id="XMLID_1120_">
		<g>
			<path class="st0" d="M524.2-27c7.7,0,7.7-11.9,0-11.9C516.6-39,516.5-27,524.2-27L524.2-27z"/>
		</g>
	</g>
</g>
<text id="XMLID_1119_" transform="matrix(1 0 0 1 60.27 -56.4883)"><tspan x="0" y="0" class="st1 st2">Student </tspan><tspan x="0" y="26.2" class="st3 st2">najczęściej kierunku ekonomicznego,  </tspan><tspan x="0" y="47.2" class="st3 st2">absolwent studiów licencjackich lub  </tspan><tspan x="0" y="68.1" class="st3 st2">w trakcie magisterskich, doktoranckich</tspan></text>
<g id="XMLID_1267_">
	<g id="XMLID_1253_">
		<g>
			<path class="st0" d="M420.4,68c-11.9,0-23.8,0-35.7,0c-28.6,0-57.2,0-85.8,0c-34.6,0-69.3,0-103.9,0c-30.1,0-60.2,0-90.3,0
				c-9.8,0-19.7,0-29.5,0c-4.5,0-9.7-0.8-14.2,0c-0.2,0-0.4,0-0.6,0c-1.9,0-1.9,3,0,3c11.9,0,23.8,0,35.7,0c28.6,0,57.2,0,85.8,0
				c34.6,0,69.3,0,103.9,0c30.1,0,60.2,0,90.3,0c9.8,0,19.7,0,29.5,0c4.5,0,9.7,0.8,14.2,0c0.2,0,0.4,0,0.6,0
				C422.3,71,422.3,68,420.4,68L420.4,68z"/>
		</g>
	</g>
	<g id="XMLID_1252_">
		<g>
			<path class="st0" d="M518.8,111.6c-28.8-12.7-57.6-25.3-86.4-38c-4.2-1.8-8.3-3.7-12.5-5.5c-1.8-0.8-3.3,1.8-1.5,2.6
				c28.8,12.7,57.6,25.3,86.4,38c4.2,1.8,8.3,3.7,12.5,5.5C519,115,520.6,112.4,518.8,111.6L518.8,111.6z"/>
		</g>
	</g>
	<g id="XMLID_1238_">
		<g>
			<path class="st0" d="M517.9,119.6c7.7,0,7.7-11.9,0-11.9C510.3,107.7,510.2,119.6,517.9,119.6L517.9,119.6z"/>
		</g>
	</g>
</g>
<text id="XMLID_1232_" transform="matrix(1 0 0 1 60.2095 62.0303)"><tspan x="0" y="0" class="st1 st2">Profil</tspan><tspan x="0" y="26.2" class="st3 st2">22-27 lat</tspan><tspan x="0" y="52.5" class="st3 st2">mieszkaniec dużego miasta bądź  </tspan><tspan x="0" y="73.4" class="st3 st2">aglomeracji jednego z największych  </tspan><tspan x="0" y="94.3" class="st3 st2">miast Polski</tspan><tspan x="0" y="120.6" class="st3 st2">pracuje dorywczo, ale szuka  </tspan><tspan x="0" y="141.5" class="st3 st2">stażu lub zatrudnienia  </tspan><tspan x="0" y="162.4" class="st3 st2">w interesującej go branży</tspan></text>
<g id="XMLID_1375_">
	<g id="XMLID_1361_">
		<g>
			<path class="st0" d="M501,466.5c7.7,0,7.7-11.9,0-11.9C493.4,454.6,493.4,466.5,501,466.5L501,466.5z"/>
		</g>
	</g>
	<g id="XMLID_1342_">
		<g>
			<path class="st0" d="M638.6,532.8c-34.7,0-69.4,0-104.1,0c-4.9,0-9.9,0-14.8,0c-1.9,0-1.9,3,0,3c34.7,0,69.4,0,104.1,0
				c4.9,0,9.9,0,14.8,0C640.5,535.8,640.5,532.8,638.6,532.8L638.6,532.8z"/>
		</g>
	</g>
	<g id="XMLID_1326_">
		<g>
			<path class="st0" d="M499.6,461.3c5.8,24.3,11.7,48.6,17.5,72.9c0.5,1.9,3.3,1.1,2.9-0.8c-5.8-24.3-11.7-48.6-17.5-72.9
				C502.1,458.7,499.2,459.5,499.6,461.3L499.6,461.3z"/>
		</g>
	</g>
</g>
<text id="XMLID_1317_" transform="matrix(1 0 0 1 540.9565 527.6816)"><tspan x="0" y="0" class="st1 st2">Czas wolny</tspan><tspan x="-20.1" y="26.2" class="st3 st2">czyta artykuły</tspan><tspan x="-86.7" y="52.5" class="st3 st2">przegląda Facebooka</tspan><tspan x="-20.8" y="78.7" class="st3 st2">ogląda seriale</tspan><tspan x="-20.8" y="105" class="st3 st2">uprawia sport</tspan></text>
<g id="XMLID_638_">
	<g id="XMLID_1339_">
		<g>
			<path class="st0" d="M60.5,307.9c36.2,0,72.3,0,108.5,0c57.4,0,114.8,0,172.2,0c13.1,0,26.3,0,39.4,0c1.9,0,1.9-3,0-3
				c-36.2,0-72.3,0-108.5,0c-57.4,0-114.8,0-172.2,0c-13.1,0-26.3,0-39.4,0C58.6,304.9,58.6,307.9,60.5,307.9L60.5,307.9z"/>
		</g>
	</g>
	<g id="XMLID_1320_">
		<g>
			<path class="st0" d="M467.8,251.8c-25.7,15.7-51.3,31.4-77,47.2c-3.6,2.2-7.2,4.4-10.8,6.6c-1.6,1-0.1,3.6,1.5,2.6
				c25.7-15.7,51.3-31.4,77-47.2c3.6-2.2,7.2-4.4,10.8-6.6C470.9,253.3,469.4,250.7,467.8,251.8L467.8,251.8z"/>
		</g>
	</g>
	<g id="XMLID_1312_">
		<g>
			<path class="st0" d="M468.3,259.5c7.7,0,7.7-11.9,0-11.9C460.6,247.6,460.6,259.5,468.3,259.5L468.3,259.5z"/>
		</g>
	</g>
</g>
<text id="XMLID_1249_" transform="matrix(1 0 0 1 60.6587 299.9277)"><tspan x="0" y="0" class="st1 st2">Zainteresowania </tspan><tspan x="0" y="26.2" class="st3 st2">bardzo sprecyzowane, wpadające  </tspan><tspan x="0" y="47.2" class="st3 st2">w ramy jednej z dziedzin konkursu,  </tspan><tspan x="0" y="68.1" class="st3 st2">np. marketing, podatki, PR, logistyka, IT.  </tspan><tspan x="0" y="89" class="st3 st2">Samodzielnie kształci się w tym zakresie</tspan></text>
<g id="XMLID_1492_">
	<g id="XMLID_637_">
		<g>
			<path class="st0" d="M443.7,451.2c-36.4,0-72.9,0-109.3,0c-57.6,0-115.3,0-172.9,0c-13.2,0-26.5,0-39.7,0c-1.9,0-1.9,3,0,3
				c36.4,0,72.9,0,109.3,0c57.6,0,115.3,0,172.9,0c13.2,0,26.5,0,39.7,0C445.6,454.2,445.6,451.2,443.7,451.2L443.7,451.2z"/>
		</g>
	</g>
	<g id="XMLID_636_">
		<g>
			<path class="st0" d="M491.9,390.9c-17.1,20.6-34.2,41.2-51.3,61.8c-1.2,1.5,0.9,3.6,2.1,2.1c17.1-20.6,34.2-41.2,51.3-61.8
				C495.3,391.5,493.2,389.4,491.9,390.9L491.9,390.9z"/>
		</g>
	</g>
	<g id="XMLID_635_">
		<g>
			<path class="st0" d="M496.6,394.7c7.7,0,7.7-11.9,0-11.9C488.9,382.7,488.9,394.7,496.6,394.7L496.6,394.7z"/>
		</g>
	</g>
</g>
<text id="XMLID_634_" transform="matrix(1 0 0 1 121.7075 447.3994)"><tspan x="0" y="0" class="st1 st2">Charakterystyka</tspan><tspan x="0" y="26.2" class="st3 st2">ambitny</tspan><tspan x="0" y="52.5" class="st3 st2">inteligentny</tspan><tspan x="0" y="78.7" class="st3 st2">stawia na samorozwój</tspan><tspan x="0" y="105" class="st3 st2">dba o wygląd</tspan><tspan x="0" y="131.2" class="st3 st2">przywiązuje wagę do pieniędzy</tspan><tspan x="0" y="157.4" class="st3 st2">myśli długoterminowo</tspan></text>
</svg>
